# Blender 5.2.0 LTS
# www.blender.org
o Muro
v -70.695953 0.000000 40.816326
v -64.383812 0.000000 37.172009
v -70.695953 16.034985 40.816326
v -55.524303 0.000000 59.840969
v -50.566776 0.000000 54.498024
v -55.524303 16.034985 59.840969
v -35.419083 0.000000 73.548477
v -32.256664 0.000000 66.981644
v -35.419083 16.034985 73.548477
v -12.166716 0.000000 80.720886
v -11.080401 0.000000 73.513664
v -12.166716 16.034985 80.720886
v 12.166716 0.000000 80.720886
v 11.080401 0.000000 73.513664
v 12.166716 16.034985 80.720886
v 35.419083 0.000000 73.548477
v 32.256664 0.000000 66.981644
v 35.419083 16.034985 73.548477
v 55.524303 0.000000 59.840969
v 50.566776 0.000000 54.498024
v 55.524303 16.034985 59.840969
v 70.695953 0.000000 40.816326
v 64.383812 0.000000 37.172009
v 70.695953 16.034985 40.816326
v -55.524303 21.865889 59.840969
v -70.695953 21.865889 40.816326
v -12.166716 21.865889 80.720886
v -35.419083 21.865889 73.548477
v 35.419083 21.865889 73.548477
v 12.166716 21.865889 80.720886
v 70.695953 21.865889 40.816326
v 55.524303 21.865889 59.840969
v 3.790087 2.186589 80.720886
v 0.000000 2.186589 80.720886
v -3.790087 2.186589 80.720886
v -3.790087 8.017492 80.720886
v -2.804665 10.641399 80.720886
v 0.000000 13.848397 80.720886
v 2.804665 10.641399 80.720886
v 3.790087 8.017492 80.720886
vn -0.0000 -1.0000 -0.0000
vn -0.7818 -0.0000 0.6235
vn -0.5633 -0.0000 0.8262
vn -0.2948 -0.0000 0.9556
vn 0.2948 -0.0000 0.9556
vn 0.5633 -0.0000 0.8262
vn 0.7818 -0.0000 0.6235
vn -0.0000 -0.0000 1.0000
s 0
f 1//1 2//1 5//1 4//1
f 1//2 4//2 6//2 3//2
f 4//1 5//1 8//1 7//1
f 4//3 7//3 9//3 6//3
f 7//1 8//1 11//1 10//1
f 7//4 10//4 12//4 9//4
f 10//1 11//1 14//1 13//1
f 13//1 14//1 17//1 16//1
f 13//5 16//5 18//5 15//5
f 16//1 17//1 20//1 19//1
f 16//6 19//6 21//6 18//6
f 19//1 20//1 23//1 22//1
f 19//7 22//7 24//7 21//7
f 3//2 6//2 25//2 26//2
f 9//4 12//4 27//4 28//4
f 15//5 18//5 29//5 30//5
f 21//7 24//7 31//7 32//7
f 13//8 33//8 34//8 35//8 10//8
f 10//8 35//8 36//8 37//8 12//8
f 12//8 37//8 38//8 39//8 15//8
f 15//8 39//8 40//8 33//8 13//8
