# Blender 5.2.0 LTS
# www.blender.org
o Torre
v 0.000000 13.119533 -23.323614
v 0.000000 106.413994 -23.323614
v 18.235136 13.119533 -14.542038
v 18.235136 106.413994 -14.542038
v 22.738842 13.119533 5.189993
v 22.738842 106.413994 5.189993
v -29.979725 0.000000 62.253529
v 10.119738 106.413994 21.013849
v -10.119738 13.119533 21.013849
v -10.119738 106.413994 21.013849
v -22.738842 13.119533 5.189993
v -22.738842 106.413994 5.189993
v -18.235136 13.119533 -14.542038
v -18.235136 106.413994 -14.542038
v 0.000000 0.000000 -34.985424
v 31.455608 0.000000 -25.085014
v 36.382149 0.000000 8.303988
v 14.547124 0.000000 30.207411
v -16.697569 0.000000 34.672852
v -33.539795 0.000000 7.655240
v -28.492397 0.000000 -22.721933
v 16.411621 113.702621 -13.087833
v 0.000000 113.702621 -20.991253
v -16.411621 113.702621 -13.087833
v -20.464958 113.702621 4.670993
v -9.107764 113.702621 18.912464
v 9.107764 113.702621 18.912464
v 20.464958 113.702621 4.670993
v 16.411621 118.950432 -13.087833
v 0.000000 118.950432 -20.991253
v -16.411621 118.950432 -13.087833
v -20.464958 118.950432 4.670993
v -9.107764 118.950432 18.912464
v 9.107764 118.950432 18.912464
v 20.464958 118.950432 4.670993
v 20.970404 127.696793 -16.723343
v 0.000000 127.696793 -26.822155
v -20.970404 127.696793 -16.723343
v -26.149670 127.696793 5.968492
v -11.637699 127.696793 24.165928
v 11.637699 127.696793 24.165928
v 26.149670 127.696793 5.968492
v 20.970404 171.428574 -16.723343
v 0.000000 171.428574 -26.822155
v -20.970404 171.428574 -16.723343
v -26.149670 171.428574 5.968492
v -11.637699 171.428574 24.165928
v 11.637699 171.428574 24.165928
v 26.149670 171.428574 5.968492
v 12.536654 180.174927 -9.997650
v 0.000000 180.174927 -16.034983
v -12.536654 180.174927 -9.997650
v -15.632953 180.174927 3.568120
v -6.957320 180.174927 14.447021
v 6.957320 180.174927 14.447021
v 15.632953 180.174927 3.568120
v 14.360167 183.090378 -11.451854
v 0.000000 183.090378 -18.367344
v -14.360167 183.090378 -11.451854
v -17.906837 183.090378 4.087119
v -7.969294 183.090378 16.548405
v 7.969294 183.090378 16.548405
v 17.906837 183.090378 4.087119
v 14.360167 189.504364 -11.451854
v 0.000000 189.504364 -18.367344
v -14.360167 189.504364 -11.451854
v -17.906837 189.504364 4.087119
v -7.969294 189.504364 16.548405
v 7.969294 189.504364 16.548405
v 17.906837 189.504364 4.087119
v -14.031290 136.151596 -20.065042
v -10.485202 136.151596 -21.772749
v -6.939115 136.151596 -23.480455
v -6.939115 149.562683 -23.480455
v -7.861097 156.122452 -23.036451
v -10.485202 164.139938 -21.772749
v -13.109307 156.122452 -20.509047
v -14.031290 149.562683 -20.065042
v 22.684225 136.151596 -9.214605
v 23.560038 136.151596 -5.377425
v 24.435848 136.151596 -1.540245
v 24.435848 149.562683 -1.540245
v 24.208138 156.122452 -2.537912
v 23.560038 164.139938 -5.377425
v 22.911936 156.122452 -8.216938
v 22.684225 149.562683 -9.214605
v 3.935860 136.151596 24.165928
v 0.000000 136.151596 24.165928
v -3.935860 136.151596 24.165928
v -3.935860 149.562683 24.165928
v -2.912536 156.122452 24.165928
v 0.000000 164.139938 24.165928
v 2.912536 156.122452 24.165928
v 3.935860 149.562683 24.165928
v -24.435848 136.151596 -1.540246
v -23.560038 136.151596 -5.377425
v -22.684225 136.151596 -9.214605
v -22.684225 149.562683 -9.214605
v -22.911936 156.122452 -8.216938
v -23.560038 164.139938 -5.377425
v -24.208138 156.122452 -2.537912
v -24.435848 149.562683 -1.540246
v 6.939115 136.151596 -23.480455
v 10.485202 136.151596 -21.772749
v 14.031290 136.151596 -20.065042
v 14.031290 149.562683 -20.065042
v 13.109307 156.122452 -20.509047
v 10.485202 164.139938 -21.772749
v 7.861097 156.122452 -23.036451
v 6.939115 149.562683 -23.480455
v 21.347651 136.151596 11.990030
v 18.893682 136.151596 15.067209
v 16.439714 136.151596 18.144388
v 16.439714 149.562683 18.144388
v 17.077747 156.122452 17.344322
v 18.893682 164.139938 15.067209
v 20.709620 156.122452 12.790096
v 21.347651 149.562683 11.990030
v -16.439716 136.151596 18.144388
v -18.893684 136.151596 15.067209
v -21.347652 136.151596 11.990030
v -21.347652 149.562683 11.990030
v -20.709621 156.122452 12.790096
v -18.893684 164.139938 15.067209
v -17.077749 156.122452 17.344322
v -16.439716 149.562683 18.144388
v 0.000000 27.696793 -23.323614
v 18.235136 27.696795 -14.542038
v 22.738842 27.696795 5.189993
v 10.119738 27.696795 21.013849
v -10.119738 27.696795 21.013849
v -22.738842 27.696795 5.189993
v -18.235136 27.696795 -14.542038
v -29.979725 13.119533 62.253529
v 27.829279 0.000000 57.788090
v 27.829279 13.119533 57.788090
v 66.226875 0.000000 15.115854
v 66.226875 13.119533 15.115854
v -15.611300 39.358597 14.127648
v -17.247280 39.358597 12.076195
v -17.247280 62.682209 12.076195
v -15.611300 62.682209 14.127648
v 1.311953 67.055389 21.013849
v -1.311953 67.055389 21.013849
v -1.311953 87.463554 21.013849
v 1.311953 87.463554 21.013849
v 17.247280 39.358597 12.076195
v 15.611300 39.358597 14.127647
v 15.611300 62.682209 14.127647
v 17.247280 62.682209 12.076195
v 20.195051 67.055389 -5.955082
v 20.778925 67.055389 -3.396962
v 20.778925 87.463554 -3.396962
v 20.195051 87.463554 -5.955082
v 7.935538 39.358597 -19.502060
v 10.299597 39.358597 -18.363590
v 10.299597 62.682209 -18.363590
v 7.935538 62.682209 -19.502060
v -10.299597 67.055389 -18.363590
v -7.935538 67.055389 -19.502060
v -7.935538 87.463554 -19.502060
v -10.299597 87.463554 -18.363590
v -20.778927 39.358597 -3.396962
v -20.195053 39.358597 -5.955082
v -20.195053 62.682209 -5.955082
v -20.778927 62.682209 -3.396962
v -7.969294 199.416916 16.548405
v -17.906837 199.416916 4.087119
v 17.906837 198.250732 4.087119
v 7.969294 198.250732 16.548405
v 0.000000 200.000000 -18.367344
v 14.360167 200.000000 -11.451854
vn -0.4339 -0.0000 -0.9010
vn 0.4339 -0.0000 -0.9010
vn 0.9749 -0.0000 -0.2225
vn 0.7818 -0.0000 0.6235
vn -0.0000 -0.0000 1.0000
vn 0.2225 -0.0000 -0.9749
vn -0.9749 -0.0000 -0.2225
vn -0.7818 -0.0000 0.6235
vn -0.0000 -1.0000 -0.0000
vn -0.9010 -0.0000 -0.4339
vn -0.7759 0.6055 -0.1771
vn 0.7434 -0.0000 0.6689
vn -0.2965 0.6614 -0.6889
vn 0.6608 0.7442 -0.0975
vn -0.6072 0.6986 0.3785
vn 0.3387 0.6251 -0.7032
vn -0.4169 0.2770 -0.8657
vn 0.9368 0.2770 -0.2138
vn -0.7512 0.2770 0.5991
vn 0.4169 0.2770 -0.8657
vn 0.7512 0.2770 0.5991
vn -0.9368 0.2770 -0.2138
vn -0.0000 0.2770 0.9609
vn -0.0000 -0.5149 0.8572
vn -0.8358 -0.5149 -0.1908
vn 0.3719 -0.5149 -0.7724
vn 0.6702 -0.5149 0.5345
vn -0.6702 -0.5149 0.5345
vn -0.3719 -0.5149 -0.7724
vn 0.8358 -0.5149 -0.1908
vn 0.5230 0.7433 0.4171
vn -0.5230 0.7433 0.4171
vn -0.2902 0.7433 -0.6027
vn 0.6522 0.7433 -0.1489
vn -0.0000 0.7433 0.6689
vn -0.6522 0.7433 -0.1489
vn 0.2902 0.7433 -0.6027
vn 0.7909 -0.5847 -0.1805
vn -0.0000 -0.5847 0.8112
vn -0.7909 -0.5847 -0.1805
vn 0.3520 -0.5847 -0.7309
vn 0.6342 -0.5847 0.5058
vn -0.6342 -0.5847 0.5058
vn -0.3520 -0.5847 -0.7309
vn -0.7430 0.6578 -0.1234
vn -0.3387 0.6251 -0.7032
vn 0.7029 0.6929 -0.1604
vn -0.6222 0.6055 0.4962
vn 0.2051 0.7303 -0.6516
vn 0.0770 -0.0000 0.9970
s 0
f 133//1 159//1 160//1 127//1
f 127//2 155//2 156//2 128//2
f 128//3 151//3 152//3 129//3
f 129//4 147//4 148//4 130//4
f 130//5 143//5 144//5 131//5
f 17//6 5//6 138//6 137//6
f 132//7 163//7 164//7 133//7
f 67//8 68//8 167//8 168//8
f 15//9 16//9 17//9 18//9 19//9 20//9 21//9
f 19//10 7//10 134//10 9//10
f 13//11 20//11 11//11
f 135//12 137//12 138//12 136//12
f 13//13 15//13 21//13
f 3//14 17//14 16//14
f 9//15 20//15 19//15
f 3//16 15//16 1//16
f 2//17 14//17 24//17 23//17
f 6//18 4//18 22//18 28//18
f 12//19 10//19 26//19 25//19
f 4//20 2//20 23//20 22//20
f 8//21 6//21 28//21 27//21
f 14//22 12//22 25//22 24//22
f 10//23 8//23 27//23 26//23
f 27//4 28//4 35//4 34//4
f 25//8 26//8 33//8 32//8
f 23//1 24//1 31//1 30//1
f 28//3 22//3 29//3 35//3
f 26//5 27//5 34//5 33//5
f 24//7 25//7 32//7 31//7
f 22//2 23//2 30//2 29//2
f 33//24 34//24 41//24 40//24
f 31//25 32//25 39//25 38//25
f 29//26 30//26 37//26 36//26
f 34//27 35//27 42//27 41//27
f 32//28 33//28 40//28 39//28
f 30//29 31//29 38//29 37//29
f 35//30 29//30 36//30 42//30
f 36//3 79//3 80//3 81//3 42//3
f 41//5 87//5 88//5 89//5 40//5
f 39//7 95//7 96//7 97//7 38//7
f 37//2 103//2 104//2 105//2 36//2
f 42//4 111//4 112//4 113//4 41//4
f 40//8 119//8 120//8 121//8 39//8
f 48//31 49//31 56//31 55//31
f 46//32 47//32 54//32 53//32
f 44//33 45//33 52//33 51//33
f 49//34 43//34 50//34 56//34
f 47//35 48//35 55//35 54//35
f 45//36 46//36 53//36 52//36
f 43//37 44//37 51//37 50//37
f 56//38 50//38 57//38 63//38
f 54//39 55//39 62//39 61//39
f 52//40 53//40 60//40 59//40
f 50//41 51//41 58//41 57//41
f 55//42 56//42 63//42 62//42
f 53//43 54//43 61//43 60//43
f 51//44 52//44 59//44 58//44
f 60//8 61//8 68//8 67//8
f 58//1 59//1 66//1 65//1
f 63//3 57//3 64//3 70//3
f 61//5 62//5 69//5 68//5
f 59//7 60//7 67//7 66//7
f 57//2 58//2 65//2 64//2
f 62//4 63//4 70//4 69//4
f 13//45 21//45 20//45
f 18//9 17//9 137//9 135//9
f 13//46 1//46 15//46
f 3//47 5//47 17//47
f 9//48 11//48 20//48
f 3//49 16//49 15//49
f 38//1 71//1 72//1 73//1 37//1
f 37//1 73//1 74//1 75//1 44//1
f 44//1 75//1 76//1 77//1 45//1
f 45//1 77//1 78//1 71//1 38//1
f 42//3 81//3 82//3 83//3 49//3
f 49//3 83//3 84//3 85//3 43//3
f 43//3 85//3 86//3 79//3 36//3
f 40//5 89//5 90//5 91//5 47//5
f 47//5 91//5 92//5 93//5 48//5
f 48//5 93//5 94//5 87//5 41//5
f 38//7 97//7 98//7 99//7 45//7
f 45//7 99//7 100//7 101//7 46//7
f 46//7 101//7 102//7 95//7 39//7
f 36//2 105//2 106//2 107//2 43//2
f 43//2 107//2 108//2 109//2 44//2
f 44//2 109//2 110//2 103//2 37//2
f 41//4 113//4 114//4 115//4 48//4
f 48//4 115//4 116//4 117//4 49//4
f 49//4 117//4 118//4 111//4 42//4
f 39//8 121//8 122//8 123//8 46//8
f 46//8 123//8 124//8 125//8 47//8
f 47//8 125//8 126//8 119//8 40//8
f 11//7 132//7 133//7 13//7
f 9//8 131//8 132//8 11//8
f 7//50 135//50 136//50 134//50
f 19//9 18//9 135//9 7//9
f 3//3 128//3 129//3 5//3
f 1//2 127//2 128//2 3//2
f 13//1 133//1 127//1 1//1
f 131//8 139//8 140//8 132//8
f 132//8 140//8 141//8 12//8
f 12//8 141//8 142//8 10//8
f 10//8 142//8 139//8 131//8
f 131//5 144//5 145//5 10//5
f 10//5 145//5 146//5 8//5
f 8//5 146//5 143//5 130//5
f 130//4 148//4 149//4 8//4
f 8//4 149//4 150//4 6//4
f 6//4 150//4 147//4 129//4
f 129//3 152//3 153//3 6//3
f 6//3 153//3 154//3 4//3
f 4//3 154//3 151//3 128//3
f 128//2 156//2 157//2 4//2
f 4//2 157//2 158//2 2//2
f 2//2 158//2 155//2 127//2
f 127//1 160//1 161//1 2//1
f 2//1 161//1 162//1 14//1
f 14//1 162//1 159//1 133//1
f 133//7 164//7 165//7 14//7
f 14//7 165//7 166//7 12//7
f 12//7 166//7 163//7 132//7
f 69//4 70//4 169//4 170//4
f 64//2 65//2 171//2 172//2
o Rampa
v 0.829381 0.000000 31.959665
v 24.469963 0.000000 20.574961
v 2.644770 13.994168 -20.041916
v -17.318388 13.994168 -10.428165
v -17.318388 0.000000 -10.428165
v 2.644770 0.000000 -20.041916
vn 0.1261 0.9568 0.2619
vn -0.4339 -0.0000 -0.9010
vn -0.0000 -1.0000 -0.0000
vn -0.9193 -0.0000 0.3936
vn 0.8809 -0.0000 -0.4733
s 0
f 173//51 174//51 175//51 176//51
f 176//52 175//52 178//52 177//52
f 173//53 177//53 178//53 174//53
f 173//54 176//54 177//54
f 174//55 178//55 175//55
o Muro
v -35.419083 0.000000 73.548477
v -32.256664 0.000000 66.981644
v -35.419083 16.034985 73.548477
v -7.317494 0.000000 81.304024
v -6.664146 0.000000 74.044731
v -7.317494 16.034985 81.304024
v 21.717293 0.000000 78.690842
v 19.778250 0.000000 71.664879
v 21.717293 16.034985 78.690842
v 47.982468 0.000000 66.042198
v 43.698318 0.000000 60.145576
v 47.982468 16.034985 66.042198
v 68.128426 0.000000 44.971184
v 62.045536 0.000000 40.955898
v 68.128426 16.034985 44.971184
v 79.585945 0.000000 18.164974
v 72.480057 0.000000 16.543102
v 79.585945 16.034985 18.164974
v -7.317494 21.865889 81.304024
v -35.419083 21.865889 73.548477
v 47.982468 21.865889 66.042198
v 21.717293 21.865889 78.690842
v 79.585945 21.865889 18.164974
v 68.128426 21.865889 44.971184
v 38.264629 2.186589 70.722069
v 34.849880 2.186589 72.366524
v 31.435127 2.186589 74.010979
v 31.435127 8.017492 74.010979
v 32.322964 10.641399 73.583420
v 34.849880 13.848397 72.366524
v 37.376797 10.641399 71.149620
v 38.264629 8.017492 70.722069
vn -0.0000 -1.0000 -0.0000
vn -0.2660 -0.0000 0.9640
vn 0.0896 -0.0000 0.9960
vn 0.7228 -0.0000 0.6911
vn 0.9195 -0.0000 0.3930
vn 0.4339 -0.0000 0.9010
s 0
f 179//56 180//56 183//56 182//56
f 179//57 182//57 184//57 181//57
f 182//56 183//56 186//56 185//56
f 182//58 185//58 187//58 184//58
f 185//56 186//56 189//56 188//56
f 188//56 189//56 192//56 191//56
f 188//59 191//59 193//59 190//59
f 191//56 192//56 195//56 194//56
f 191//60 194//60 196//60 193//60
f 181//57 184//57 197//57 198//57
f 187//61 190//61 199//61 200//61
f 193//60 196//60 201//60 202//60
f 188//61 203//61 204//61 205//61 185//61
f 185//61 205//61 206//61 207//61 187//61
f 187//61 207//61 208//61 209//61 190//61
f 190//61 209//61 210//61 203//61 188//61
