# Blender 5.2.0 LTS
# www.blender.org
mtllib PaperDiceTower7_300_tinte_piatte.mtl
o Torre
v 0.000000 19.679298 -34.985424
v 0.000000 159.620987 -34.985424
v 27.352703 19.679298 -21.813057
v 27.352703 159.620987 -21.813057
v 34.108265 19.679298 7.784989
v 34.108265 159.620987 7.784989
v -44.969585 0.000000 93.380295
v 15.179607 159.620987 31.520775
v -15.179607 19.679298 31.520775
v -15.179607 159.620987 31.520775
v -34.108265 19.679298 7.784989
v -34.108265 159.620987 7.784989
v -27.352703 19.679298 -21.813057
v -27.352703 159.620987 -21.813057
v 0.000000 0.000000 -52.478134
v 47.183414 0.000000 -37.627522
v 54.573223 0.000000 12.455983
v 21.820686 0.000000 45.311115
v -25.046352 0.000000 52.009277
v -50.309689 0.000000 11.482860
v -42.738598 0.000000 -34.082901
v 24.617432 170.553940 -19.631750
v 0.000000 170.553940 -31.486877
v -24.617432 170.553940 -19.631750
v -30.697437 170.553940 7.006490
v -13.661646 170.553940 28.368696
v 13.661646 170.553940 28.368696
v 30.697437 170.553940 7.006490
v 24.617432 178.425644 -19.631750
v 0.000000 178.425644 -31.486877
v -24.617432 178.425644 -19.631750
v -30.697437 178.425644 7.006490
v -13.661646 178.425644 28.368696
v 13.661646 178.425644 28.368696
v 30.697437 178.425644 7.006490
v 31.455606 191.545197 -25.085014
v 0.000000 191.545197 -40.233234
v -31.455606 191.545197 -25.085014
v -39.224503 191.545197 8.952738
v -17.456549 191.545197 36.248890
v 17.456549 191.545197 36.248890
v 39.224503 191.545197 8.952738
v 31.455606 257.142853 -25.085014
v 0.000000 257.142853 -40.233234
v -31.455606 257.142853 -25.085014
v -39.224503 257.142853 8.952738
v -17.456549 257.142853 36.248890
v 17.456549 257.142853 36.248890
v 39.224503 257.142853 8.952738
v 18.804981 270.262390 -14.996475
v 0.000000 270.262390 -24.052475
v -18.804981 270.262390 -14.996475
v -23.449429 270.262390 5.352180
v -10.435980 270.262390 21.670532
v 10.435980 270.262390 21.670532
v 23.449429 270.262390 5.352180
v 21.540251 274.635559 -17.177780
v 0.000000 274.635559 -27.551018
v -21.540251 274.635559 -17.177780
v -26.860256 274.635559 6.130679
v -11.953940 274.635559 24.822609
v 11.953940 274.635559 24.822609
v 26.860256 274.635559 6.130679
v 21.540251 284.256561 -17.177780
v 0.000000 284.256561 -27.551018
v -21.540251 284.256561 -17.177780
v -26.860256 284.256561 6.130679
v -11.953940 284.256561 24.822609
v 11.953940 284.256561 24.822609
v 26.860256 284.256561 6.130679
v -24.659575 204.227402 27.216583
v -28.340527 204.227402 22.600813
v -32.021481 204.227402 17.985044
v -32.021481 224.344025 17.985044
v -31.064432 234.183670 19.185144
v -28.340527 246.209915 22.600813
v -25.616623 234.183670 26.016483
v -24.659575 224.344025 27.216583
v -21.046936 204.227402 -30.097565
v -15.727803 204.227402 -32.659122
v -10.408671 204.227402 -35.220684
v -10.408671 224.344025 -35.220684
v -11.791646 234.183670 -34.554676
v -15.727803 246.209915 -32.659122
v -19.663961 234.183670 -30.763571
v -21.046936 224.344025 -30.097565
v 34.026337 204.227402 -13.821907
v 35.340054 204.227402 -8.066137
v 36.653770 204.227402 -2.310368
v 36.653770 224.344025 -2.310368
v 36.312206 234.183670 -3.806868
v 35.340054 246.209915 -8.066137
v 34.367905 234.183670 -12.325407
v 34.026337 224.344025 -13.821907
v 5.903790 204.227402 36.248890
v 0.000000 204.227402 36.248890
v -5.903790 204.227402 36.248890
v -5.903790 224.344025 36.248890
v -4.368804 234.183670 36.248890
v 0.000000 246.209915 36.248890
v 4.368804 234.183670 36.248890
v 5.903790 224.344025 36.248890
v -36.653770 204.227402 -2.310369
v -35.340054 204.227402 -8.066138
v -34.026337 204.227402 -13.821907
v -34.026337 224.344025 -13.821907
v -34.367905 234.183670 -12.325407
v -35.340054 246.209915 -8.066138
v -36.312206 234.183670 -3.806868
v -36.653770 224.344025 -2.310369
v 10.408671 204.227402 -35.220684
v 15.727803 204.227402 -32.659122
v 21.046936 204.227402 -30.097565
v 21.046936 224.344025 -30.097565
v 19.663961 234.183670 -30.763571
v 15.727803 246.209915 -32.659122
v 11.791646 234.183670 -34.554676
v 10.408671 224.344025 -35.220684
v 32.021477 204.227402 17.985044
v 28.340525 204.227402 22.600813
v 24.659573 204.227402 27.216583
v 24.659573 224.344025 27.216583
v 25.616621 234.183670 26.016483
v 28.340525 246.209915 22.600813
v 31.064428 234.183670 19.185144
v 32.021477 224.344025 17.985044
v 0.000000 41.545189 -34.985424
v 27.352703 41.545189 -21.813057
v 34.108265 41.545189 7.784989
v 15.179607 41.545189 31.520775
v -15.179607 41.545189 31.520775
v -34.108265 41.545189 7.784989
v -27.352703 41.545189 -21.813057
v -44.969585 19.679298 93.380295
v 41.743919 0.000000 86.682129
v 41.743919 19.679298 86.682129
v 99.340317 0.000000 22.673780
v 99.340317 19.679298 22.673780
v -23.416950 59.037895 21.191471
v -25.870918 59.037895 18.114292
v -25.870918 94.023315 18.114292
v -23.416950 94.023315 21.191471
v 1.967930 100.583084 31.520775
v -1.967930 100.583084 31.520775
v -1.967930 131.195328 31.520775
v 1.967930 131.195328 31.520775
v 25.870918 59.037895 18.114292
v 23.416950 59.037895 21.191471
v 23.416950 94.023315 21.191471
v 25.870918 94.023315 18.114292
v 30.292576 100.583084 -8.932623
v 31.168388 100.583084 -5.095443
v 31.168388 131.195328 -5.095443
v 30.292576 131.195328 -8.932623
v 11.903307 59.037895 -29.253090
v 15.449396 59.037895 -27.545387
v 15.449396 94.023315 -27.545387
v 11.903307 94.023315 -29.253090
v -15.449396 100.583084 -27.545387
v -11.903307 100.583084 -29.253090
v -11.903307 131.195328 -29.253090
v -15.449396 131.195328 -27.545387
v -31.168392 59.037895 -5.095444
v -30.292578 59.037895 -8.932624
v -30.292578 94.023315 -8.932624
v -31.168392 94.023315 -5.095444
v -11.953940 299.125366 24.822609
v -26.860256 299.125366 6.130679
v 26.860256 297.376099 6.130679
v 11.953940 297.376099 24.822609
v 0.000000 300.000000 -27.551018
v 21.540251 300.000000 -17.177780
vn -0.4339 -0.0000 -0.9010
vn 0.4339 -0.0000 -0.9010
vn 0.9749 -0.0000 -0.2225
vn 0.7818 -0.0000 0.6235
vn -0.0000 -0.0000 1.0000
vn 0.2051 0.7303 -0.6516
vn -0.9749 -0.0000 -0.2225
vn -0.7818 -0.0000 0.6235
vn -0.0000 1.0000 -0.0000
vn 0.3387 0.6251 -0.7032
vn 0.2225 -0.0000 -0.9749
vn -0.7759 0.6055 -0.1771
vn -0.9010 -0.0000 -0.4339
vn -0.2965 0.6614 -0.6889
vn 0.6608 0.7442 -0.0975
vn -0.6072 0.6986 0.3785
vn -0.0000 0.2770 0.9609
vn -0.4169 0.2770 -0.8657
vn 0.9368 0.2770 -0.2138
vn -0.7512 0.2770 0.5991
vn 0.4169 0.2770 -0.8657
vn 0.7512 0.2770 0.5991
vn -0.9368 0.2770 -0.2138
vn 0.8358 -0.5149 -0.1908
vn -0.0000 -0.5149 0.8572
vn -0.8358 -0.5149 -0.1908
vn 0.3719 -0.5149 -0.7724
vn 0.6702 -0.5149 0.5345
vn -0.6702 -0.5149 0.5345
vn -0.3719 -0.5149 -0.7724
vn 0.2902 0.7433 -0.6027
vn 0.5230 0.7433 0.4171
vn -0.5230 0.7433 0.4171
vn -0.2902 0.7433 -0.6027
vn 0.6522 0.7433 -0.1489
vn -0.0000 0.7433 0.6689
vn -0.6522 0.7433 -0.1489
vn 0.7909 -0.5847 -0.1805
vn -0.0000 -0.5847 0.8112
vn -0.7909 -0.5847 -0.1805
vn 0.3520 -0.5847 -0.7309
vn 0.6342 -0.5847 0.5058
vn -0.6342 -0.5847 0.5058
vn -0.3520 -0.5847 -0.7309
vn 0.7434 -0.0000 0.6689
vn -0.7430 0.6578 -0.1234
vn -0.3387 0.6251 -0.7032
vn 0.7029 0.6929 -0.1604
vn -0.6222 0.6055 0.4962
vn 0.0770 -0.0000 0.9970
vt 0.639558 0.548077
vt 0.813850 1.326923
vt 0.865773 1.326923
vt 1.040066 0.548077
vt 0.266308 0.548077
vt 0.440601 0.778846
vt 0.492524 0.778846
vt 0.666816 0.548077
vt -0.106942 0.548077
vt 0.067351 1.326923
vt 0.119274 1.326923
vt 0.293566 0.548077
vt -0.480191 0.548077
vt -0.305899 0.778846
vt -0.253976 0.778846
vt -0.079683 0.548077
vt -0.853441 0.548077
vt -0.679149 1.326923
vt -0.627225 1.326923
vt -0.452933 0.548077
vt 0.360845 0.287765
vt 0.622458 0.496394
vt 0.000000 0.692308
vt 1.012808 0.548077
vt 1.187100 0.778846
vt 1.239023 0.778846
vt 1.413316 0.548077
vt -0.650619 3.750000
vt -0.966019 3.750000
vt -0.966019 3.946154
vt -0.650619 3.946154
vt -0.563821 0.449632
vt -0.663701 -0.151485
vt -0.330419 -0.686122
vt 0.287865 -0.597758
vt 0.719947 -0.164323
vt 0.956998 0.259615
vt 0.456362 0.000000
vt 0.556489 0.259615
vt -0.451796 0.000000
vt -0.728719 0.259615
vt 0.153973 0.259615
vt 0.153973 0.000000
vt 1.832026 0.259615
vt 1.336397 0.000000
vt 1.431517 0.259615
vt -1.770350 0.000000
vt -2.376119 0.000000
vt -2.376119 0.259615
vt -1.470350 0.259615
vt 1.094360 0.259615
vt 1.585743 0.000000
vt 0.971915 0.000000
vt -1.448885 0.259615
vt -0.979389 0.000000
vt -1.609400 0.000000
vt -0.420274 2.105769
vt -0.820782 2.105769
vt -0.800756 2.250000
vt -0.440299 2.250000
vt 0.998075 2.105769
vt 0.597567 2.105769
vt 0.617593 2.250000
vt 0.978050 2.250000
vt 0.288901 2.105769
vt -0.111607 2.105769
vt -0.091582 2.250000
vt 0.268876 2.250000
vt -0.774861 2.105769
vt -1.175369 2.105769
vt -1.155344 2.250000
vt -0.794886 2.250000
vt 0.643488 2.105769
vt 0.242980 2.105769
vt 0.263005 2.250000
vt 0.623463 2.250000
vt -0.065686 2.105769
vt -0.466194 2.105769
vt -0.446169 2.250000
vt -0.085712 2.250000
vt 1.352663 2.105769
vt 0.952154 2.105769
vt 0.972180 2.250000
vt 1.332637 2.250000
vt -0.071715 2.250000
vt -0.432172 2.250000
vt -0.432172 2.353846
vt -0.071715 2.353846
vt -0.743565 2.250000
vt -1.104022 2.250000
vt -1.104022 2.353846
vt -0.743565 2.353846
vt 0.936059 2.250000
vt 0.575602 2.250000
vt 0.575602 2.353846
vt 0.936059 2.353846
vt 0.264210 2.250000
vt -0.096247 2.250000
vt -0.096247 2.353846
vt 0.264210 2.353846
vt -0.407640 2.250000
vt -0.768097 2.250000
vt -0.768097 2.353846
vt -0.407640 2.353846
vt 1.271984 2.250000
vt 0.911527 2.250000
vt 0.911527 2.353846
vt 1.271984 2.353846
vt 0.600135 2.250000
vt 0.239677 2.250000
vt 0.239677 2.353846
vt 0.600135 2.353846
vt 0.275874 2.353846
vt -0.084583 2.353846
vt -0.134647 2.526923
vt 0.325937 2.526923
vt -0.489288 2.353846
vt -0.849745 2.353846
vt -0.899809 2.526923
vt -0.439225 2.526923
vt 1.423617 2.353846
vt 1.063160 2.353846
vt 1.013096 2.526923
vt 1.473680 2.526923
vt 0.658455 2.353846
vt 0.297998 2.353846
vt 0.247934 2.526923
vt 0.708518 2.526923
vt -0.106707 2.353846
vt -0.467164 2.353846
vt -0.517228 2.526923
vt -0.056644 2.526923
vt -0.871869 2.353846
vt -1.232326 2.353846
vt -1.282390 2.526923
vt -0.821806 2.526923
vt 1.041036 2.353846
vt 0.680579 2.353846
vt 0.630515 2.526923
vt 1.091099 2.526923
vt 0.735492 2.526923
vt 0.887899 2.694231
vt 0.965784 2.694231
vt 1.043668 2.694231
vt 1.196076 2.526923
vt -0.122983 2.526923
vt 0.029425 2.694231
vt 0.107309 2.694231
vt 0.185194 2.694231
vt 0.337601 2.526923
vt -0.981457 2.526923
vt -0.829050 2.694231
vt -0.751165 2.694231
vt -0.673281 2.694231
vt -0.520873 2.526923
vt 1.164729 2.526923
vt 1.317136 2.694231
vt 1.395021 2.694231
vt 1.472905 2.694231
vt 1.625313 2.526923
vt 0.306254 2.526923
vt 0.458662 2.694231
vt 0.536546 2.694231
vt 0.614431 2.694231
vt 0.766839 2.526923
vt -0.552220 2.526923
vt -0.399812 2.694231
vt -0.321928 2.694231
vt -0.244043 2.694231
vt -0.091636 2.526923
vt 0.414972 0.330929
vt 0.000000 0.530769
vt 0.000000 0.317308
vt 0.248081 0.197838
vt 0.230292 -0.478207
vt 0.517462 -0.118107
vt 0.309352 -0.070608
vt 0.137675 -0.285884
vt -0.517462 -0.118107
vt -0.230292 -0.478207
vt -0.137675 -0.285884
vt -0.309352 -0.070608
vt -0.414972 0.330929
vt -0.248081 0.197838
vt 0.206493 3.565385
vt -0.068857 3.565385
vt -0.088882 3.623077
vt 0.226518 3.623077
vt -0.344051 3.565385
vt -0.619400 3.565385
vt -0.639425 3.623077
vt -0.324025 3.623077
vt 1.032308 3.565385
vt 0.756958 3.565385
vt 0.736933 3.623077
vt 1.052333 3.623077
vt 0.481764 3.565385
vt 0.206415 3.565385
vt 0.186390 3.623077
vt 0.501790 3.623077
vt -0.068779 3.565385
vt -0.344128 3.565385
vt -0.364154 3.623077
vt -0.048754 3.623077
vt -0.619322 3.565385
vt -0.894672 3.565385
vt -0.914697 3.623077
vt -0.599297 3.623077
vt 0.757036 3.565385
vt 0.481687 3.565385
vt 0.461661 3.623077
vt 0.777061 3.623077
vt -0.062751 3.623077
vt -0.378151 3.623077
vt -0.378151 3.750000
vt -0.062751 3.750000
vt -0.650619 3.623077
vt -0.966019 3.623077
vt -0.966019 3.750000
vt 0.819052 3.623077
vt 0.503652 3.623077
vt 0.503652 3.750000
vt 0.819052 3.750000
vt 0.231184 3.623077
vt -0.084217 3.623077
vt -0.084217 3.750000
vt 0.231184 3.750000
vt -0.356685 3.623077
vt -0.672085 3.623077
vt -0.672085 3.750000
vt -0.356685 3.750000
vt 1.112986 3.623077
vt 0.797586 3.623077
vt 0.797586 3.750000
vt 1.112986 3.750000
vt 0.525118 3.623077
vt 0.209718 3.623077
vt 0.209718 3.750000
vt 0.525118 3.750000
vt -0.208402 0.000000
vt -1.344352 0.000000
vt -1.344352 0.259615
vt -0.208402 0.259615
vt 1.692309 0.259615
vt 1.818718 0.000000
vt 1.209359 0.000000
vt 0.550699 -1.143537
vt 1.310528 -0.299120
vt 0.599228 0.259615
vt 0.999736 0.259615
vt 1.099863 0.000000
vt -0.300143 0.259615
vt 0.100365 0.259615
vt 0.220518 0.000000
vt -1.611382 0.259615
vt -1.210874 0.259615
vt -1.115753 0.000000
vt -1.410694 2.526923
vt -1.258287 2.694231
vt -1.180402 2.694231
vt -1.102518 2.694231
vt -0.950110 2.526923
vt -1.267416 2.526923
vt -1.419824 2.694231
vt -1.419824 2.959615
vt -1.440073 3.089423
vt -1.267416 3.392308
vt -0.950110 3.392308
vt -1.122768 3.089423
vt -1.180402 3.248077
vt -1.238037 3.089423
vt -1.410694 3.392308
vt -1.185388 3.392308
vt -1.012730 3.089423
vt -1.032980 2.959615
vt -1.032980 2.694231
vt -1.185388 2.526923
vt 0.962405 2.526923
vt 0.809998 2.694231
vt 0.809998 2.959615
vt 0.789748 3.089423
vt 0.962405 3.392308
vt 1.196076 3.392308
vt 1.023418 3.089423
vt 0.965784 3.248077
vt 0.908149 3.089423
vt 0.735492 3.392308
vt 1.044434 3.392308
vt 1.217091 3.089423
vt 1.196841 2.959615
vt 1.196841 2.694231
vt 1.044434 2.526923
vt 0.070477 2.526923
vt -0.081931 2.694231
vt -0.081931 2.959615
vt -0.102181 3.089423
vt 0.070477 3.392308
vt 0.337601 3.392308
vt 0.164944 3.089423
vt 0.107309 3.248077
vt 0.049675 3.089423
vt -0.122983 3.392308
vt 0.152505 3.392308
vt 0.325163 3.089423
vt 0.304913 2.959615
vt 0.304913 2.694231
vt 0.152505 2.526923
vt -0.821452 2.526923
vt -0.973859 2.694231
vt -0.973859 2.959615
vt -0.994109 3.089423
vt -0.821452 3.392308
vt -0.520873 3.392308
vt -0.693530 3.089423
vt -0.751165 3.248077
vt -0.808800 3.089423
vt -0.981457 3.392308
vt -0.739423 3.392308
vt -0.566766 3.089423
vt -0.587016 2.959615
vt -0.587016 2.694231
vt -0.739423 2.526923
vt 1.408370 2.526923
vt 1.255962 2.694231
vt 1.255962 2.959615
vt 1.235712 3.089423
vt 1.408370 3.392308
vt 1.625313 3.392308
vt 1.452655 3.089423
vt 1.395021 3.248077
vt 1.337386 3.089423
vt 1.164729 3.392308
vt -1.631352 3.392308
vt -1.458694 3.089423
vt -1.478944 2.959615
vt -1.478944 2.694231
vt -1.631352 2.526923
vt 0.516441 2.526923
vt 0.364034 2.694231
vt 0.364034 2.959615
vt 0.343784 3.089423
vt 0.516441 3.392308
vt 0.766839 3.392308
vt 0.594181 3.089423
vt 0.536546 3.248077
vt 0.478912 3.089423
vt 0.306254 3.392308
vt 0.598469 3.392308
vt 0.771127 3.089423
vt 0.750877 2.959615
vt 0.750877 2.694231
vt 0.598469 2.526923
vt -0.375487 2.526923
vt -0.527895 2.694231
vt -0.527895 2.959615
vt -0.548145 3.089423
vt -0.375487 3.392308
vt -0.091636 3.392308
vt -0.264293 3.089423
vt -0.321928 3.248077
vt -0.379563 3.089423
vt -0.552220 3.392308
vt -0.293459 3.392308
vt -0.120802 3.089423
vt -0.141052 2.959615
vt -0.141052 2.694231
vt -0.293459 2.526923
vt 1.012808 0.259615
vt 1.413316 0.259615
vt -1.226691 0.259615
vt -1.226691 0.548077
vt -0.826183 0.548077
vt -0.826183 0.259615
vt -1.313563 0.000000
vt -2.460922 0.000000
vt -2.460922 0.259615
vt -1.313563 0.259615
vt -0.593253 -1.231902
vt -0.106942 0.259615
vt -0.106942 0.548077
vt 0.293567 0.548077
vt 0.293567 0.259615
vt 0.266308 0.259615
vt 0.666816 0.259615
vt 0.639558 0.259615
vt 1.040066 0.259615
vt -1.052398 0.778846
vt -1.000475 0.778846
vt -1.091033 0.548077
vt -1.265325 0.778846
vt -1.265325 1.240385
vt -1.091033 2.105769
vt -0.826183 2.105769
vt -1.000475 1.240385
vt -1.052398 1.240385
vt -1.226691 2.105769
vt -1.036428 2.105769
vt -0.862136 1.240385
vt -0.862136 0.778846
vt -1.036428 0.548077
vt -0.704221 0.548077
vt -0.878514 1.326923
vt -0.878514 1.730769
vt -0.704221 2.105769
vt -0.452933 2.105769
vt -0.627225 1.730769
vt -0.679149 1.730769
vt -0.853441 2.105769
vt -0.649617 2.105769
vt -0.475325 1.730769
vt -0.475325 1.326923
vt -0.649617 0.548077
vt -0.317410 0.548077
vt -0.491703 0.778846
vt -0.491703 1.240385
vt -0.317410 2.105769
vt -0.079683 2.105769
vt -0.253976 1.240385
vt -0.305899 1.240385
vt -0.480191 2.105769
vt -0.262806 2.105769
vt -0.088514 1.240385
vt -0.088514 0.778846
vt -0.262806 0.548077
vt 0.069401 0.548077
vt -0.104892 1.326923
vt -0.104892 1.730769
vt 0.069401 2.105769
vt 0.293566 2.105769
vt 0.119274 1.730769
vt 0.067351 1.730769
vt -0.106942 2.105769
vt 0.124005 2.105769
vt 0.298297 1.730769
vt 0.298297 1.326923
vt 0.124005 0.548077
vt 0.456212 0.548077
vt 0.281919 0.778846
vt 0.281919 1.240385
vt 0.456212 2.105769
vt 0.666816 2.105769
vt 0.492524 1.240385
vt 0.440601 1.240385
vt 0.266308 2.105769
vt 0.510816 2.105769
vt 0.685108 1.240385
vt 0.685108 0.778846
vt 0.510816 0.548077
vt 0.843023 0.548077
vt 0.668730 1.326923
vt 0.668730 1.730769
vt 0.843023 2.105769
vt 1.040066 2.105769
vt 0.865773 1.730769
vt 0.813850 1.730769
vt 0.639558 2.105769
vt 0.897627 2.105769
vt 1.071919 1.730769
vt 1.071919 1.326923
vt 0.897627 0.548077
vt 1.229834 0.548077
vt 1.055541 0.778846
vt 1.055541 1.240385
vt 1.229834 2.105769
vt 1.413316 2.105769
vt 1.239023 1.240385
vt 1.187100 1.240385
vt 1.012808 2.105769
vt -1.423239 2.105769
vt -1.248947 1.240385
vt -1.248947 0.778846
vt -1.423239 0.548077
vt -0.378151 3.750000
vt -0.378151 3.923077
vt -0.062751 3.923077
vt 0.525118 3.750000
vt 0.209718 3.750000
vt 0.209718 3.957692
vt 0.525118 3.957692
s 0
usemtl Pietra_piatta
f 133/1/1 159/2/1 160/3/1 127/4/1
f 127/5/2 155/6/2 156/7/2 128/8/2
f 128/9/3 151/10/3 152/11/3 129/12/3
f 129/13/4 147/14/4 148/15/4 130/16/4
f 130/17/5 143/18/5 144/19/5 131/20/5
f 132/24/7 163/25/7 164/26/7 133/27/7
f 67/28/8 68/29/8 167/30/8 168/31/8
f 10/57/17 8/58/17 27/59/17 26/60/17
f 2/61/18 14/62/18 24/63/18 23/64/18
f 6/65/19 4/66/19 22/67/19 28/68/19
f 12/69/20 10/70/20 26/71/20 25/72/20
f 4/73/21 2/74/21 23/75/21 22/76/21
f 8/77/22 6/78/22 28/79/22 27/80/22
f 14/81/23 12/82/23 25/83/23 24/84/23
f 27/85/4 28/86/4 35/87/4 34/88/4
f 25/89/8 26/90/8 33/91/8 32/92/8
f 23/93/1 24/94/1 31/95/1 30/96/1
f 28/97/3 22/98/3 29/99/3 35/100/3
f 26/101/5 27/102/5 34/103/5 33/104/5
f 24/105/7 25/106/7 32/107/7 31/108/7
f 22/109/2 23/110/2 30/111/2 29/112/2
f 35/113/24 29/114/24 36/115/24 42/116/24
f 33/117/25 34/118/25 41/119/25 40/120/25
f 31/121/26 32/122/26 39/123/26 38/124/26
f 29/125/27 30/126/27 37/127/27 36/128/27
f 34/129/28 35/130/28 42/131/28 41/132/28
f 32/133/29 33/134/29 40/135/29 39/136/29
f 30/137/30 31/138/30 38/139/30 37/140/30
f 38/141/1 79/142/1 80/143/1 81/144/1 37/145/1
f 36/146/3 87/147/3 88/148/3 89/149/3 42/150/3
f 41/151/5 95/152/5 96/153/5 97/154/5 40/155/5
f 39/156/7 103/157/7 104/158/7 105/159/7 38/160/7
f 37/161/2 111/162/2 112/163/2 113/164/2 36/165/2
f 42/166/4 119/167/4 120/168/4 121/169/4 41/170/4
f 43/171/31 44/172/31 51/173/31 50/174/31
f 48/175/32 49/176/32 56/177/32 55/178/32
f 46/179/33 47/180/33 54/181/33 53/182/33
f 44/172/34 45/183/34 52/184/34 51/173/34
f 49/176/35 43/171/35 50/174/35 56/177/35
f 47/180/36 48/175/36 55/178/36 54/181/36
f 45/183/37 46/179/37 53/182/37 52/184/37
f 56/185/38 50/186/38 57/187/38 63/188/38
f 54/189/39 55/190/39 62/191/39 61/192/39
f 52/193/40 53/194/40 60/195/40 59/196/40
f 50/197/41 51/198/41 58/199/41 57/200/41
f 55/201/42 56/202/42 63/203/42 62/204/42
f 53/205/43 54/206/43 61/207/43 60/208/43
f 51/209/44 52/210/44 59/211/44 58/212/44
f 62/213/4 63/214/4 70/215/4 69/216/4
f 60/217/8 61/218/8 68/219/8 67/28/8
f 58/220/1 59/221/1 66/222/1 65/223/1
f 63/224/3 57/225/3 64/226/3 70/227/3
f 61/228/5 62/229/5 69/230/5 68/231/5
f 59/232/7 60/233/7 67/234/7 66/235/7
f 57/236/2 58/237/2 65/238/2 64/239/2
f 40/258/8 71/259/8 72/260/8 73/261/8 39/262/8
f 39/263/8 73/264/8 74/265/8 75/266/8 46/267/8
f 46/268/8 75/269/8 76/270/8 77/271/8 47/272/8
f 47/273/8 77/274/8 78/275/8 71/276/8 40/277/8
f 37/278/1 81/279/1 82/280/1 83/281/1 44/282/1
f 44/283/1 83/284/1 84/285/1 85/286/1 45/287/1
f 45/288/1 85/289/1 86/290/1 79/291/1 38/292/1
f 42/293/3 89/294/3 90/295/3 91/296/3 49/297/3
f 49/298/3 91/299/3 92/300/3 93/301/3 43/302/3
f 43/303/3 93/304/3 94/305/3 87/306/3 36/307/3
f 40/308/5 97/309/5 98/310/5 99/311/5 47/312/5
f 47/313/5 99/314/5 100/315/5 101/316/5 48/317/5
f 48/318/5 101/319/5 102/320/5 95/321/5 41/322/5
f 38/323/7 105/324/7 106/325/7 107/326/7 45/327/7
f 45/328/7 107/329/7 108/330/7 109/331/7 46/332/7
f 46/333/7 109/334/7 110/335/7 103/336/7 39/337/7
f 36/338/2 113/339/2 114/340/2 115/341/2 43/342/2
f 43/343/2 115/344/2 116/345/2 117/346/2 44/347/2
f 44/348/2 117/349/2 118/350/2 111/351/2 37/352/2
f 41/353/4 121/354/4 122/355/4 123/356/4 48/357/4
f 48/358/4 123/359/4 124/360/4 125/361/4 49/362/4
f 49/363/4 125/364/4 126/365/4 119/366/4 42/367/4
f 131/371/8 139/387/8 140/388/8 132/372/8
f 132/389/8 140/390/8 141/391/8 12/392/8
f 12/393/8 141/394/8 142/395/8 10/396/8
f 10/397/8 142/398/8 139/399/8 131/400/8
f 131/401/5 144/402/5 145/403/5 10/404/5
f 10/405/5 145/406/5 146/407/5 8/408/5
f 8/409/5 146/410/5 143/411/5 130/412/5
f 130/413/4 148/414/4 149/415/4 8/416/4
f 8/417/4 149/418/4 150/419/4 6/420/4
f 6/421/4 150/422/4 147/423/4 129/424/4
f 129/425/3 152/426/3 153/427/3 6/428/3
f 6/429/3 153/430/3 154/431/3 4/432/3
f 4/433/3 154/434/3 151/435/3 128/436/3
f 128/437/2 156/438/2 157/439/2 4/440/2
f 4/441/2 157/442/2 158/443/2 2/444/2
f 2/445/2 158/446/2 155/447/2 127/448/2
f 127/449/1 160/450/1 161/451/1 2/452/1
f 2/453/1 161/454/1 162/455/1 14/456/1
f 14/457/1 162/458/1 159/459/1 133/460/1
f 133/461/7 164/462/7 165/463/7 14/464/7
f 14/465/7 165/466/7 166/467/7 12/468/7
f 12/469/7 166/470/7 163/471/7 132/472/7
f 69/216/4 70/473/4 169/474/4 170/475/4
f 64/476/2 65/477/2 171/478/2 172/479/2
usemtl Pietra_piatta_muschio
f 3/21/6 16/22/6 15/23/6
f 15/23/9 21/32/9 20/33/9 19/34/9 18/35/9 17/36/9 16/22/9
f 3/37/10 15/38/10 1/39/10
f 17/40/11 5/41/11 138/42/11 137/43/11
f 13/44/12 20/45/12 11/46/12
f 19/47/13 7/48/13 134/49/13 9/50/13
f 13/51/14 15/52/14 21/53/14
f 3/21/15 17/36/15 16/22/15
f 9/54/16 20/55/16 19/56/16
f 135/240/45 137/241/45 138/242/45 136/243/45
f 13/244/46 21/245/46 20/246/46
f 18/35/9 135/247/9 137/248/9 17/36/9
f 13/249/47 1/250/47 15/251/47
f 3/252/48 5/253/48 17/254/48
f 9/255/49 11/256/49 20/257/49
f 11/368/7 132/24/7 133/27/7 13/369/7
f 9/370/8 131/371/8 132/372/8 11/373/8
f 7/374/50 135/375/50 136/376/50 134/377/50
f 19/34/9 7/378/9 135/247/9 18/35/9
f 3/379/3 128/380/3 129/381/3 5/382/3
f 1/383/2 127/5/2 128/8/2 3/384/2
f 13/385/1 133/1/1 127/4/1 1/386/1
o Rampa
v 1.244072 0.000000 47.939499
v 36.704945 0.000000 30.862442
v 3.967154 20.991253 -30.062874
v -25.977583 20.991253 -15.642249
v -25.977583 0.000000 -15.642249
v 3.967154 0.000000 -30.062874
vn 0.1261 0.9568 0.2619
vn -0.4339 -0.0000 -0.9010
vn -0.0000 -1.0000 -0.0000
vn -0.9193 -0.0000 0.3936
vn 0.8809 -0.0000 -0.4733
vt -0.259615 -0.576923
vt 0.259615 -0.576923
vt 0.219231 0.334615
vt -0.219231 0.334615
vt 0.306382 0.276923
vt 0.744843 0.276923
vt 0.744843 0.000000
vt 0.306382 0.000000
vt 0.098241 0.000000
vt 1.010674 0.276923
vt 1.010674 0.000000
vt 0.639146 0.000000
vt -0.273286 0.000000
vt -0.273286 0.276923
s 0
usemtl Pietra_piatta_muschio
f 173/480/51 174/481/51 175/482/51 176/483/51
f 176/484/52 175/485/52 178/486/52 177/487/52
f 173/480/53 177/483/53 178/482/53 174/481/53
f 173/488/54 176/489/54 177/490/54
f 174/491/55 178/492/55 175/493/55
o Muro
v -53.128620 0.000000 110.322723
v -48.384995 0.000000 100.472473
v -53.128620 24.052479 110.322723
v -10.976241 0.000000 121.956032
v -9.996220 0.000000 111.067101
v -10.976241 24.052479 121.956032
v 32.575939 0.000000 118.036263
v 29.667374 0.000000 107.497314
v 32.575939 24.052479 118.036263
v 71.973701 0.000000 99.063301
v 65.547478 0.000000 90.218361
v 71.973701 24.052479 99.063301
v 102.192642 0.000000 67.456772
v 93.068306 0.000000 61.433846
v 102.192642 24.052479 67.456772
v 119.378922 0.000000 27.247461
v 108.720085 0.000000 24.814653
v 119.378922 24.052479 27.247461
v -10.976241 32.798832 121.956032
v -53.128620 32.798832 110.322723
v 71.973701 32.798832 99.063301
v 32.575939 32.798832 118.036263
v 119.378922 32.798832 27.247461
v 102.192642 32.798832 67.456772
v 57.396946 3.279883 106.083099
v 52.274818 3.279883 108.549782
v 47.152691 3.279883 111.016464
v 47.152691 12.026239 111.016464
v 48.484444 15.962099 110.375137
v 52.274818 20.772594 108.549782
v 56.065193 15.962099 106.724434
v 57.396946 12.026239 106.083099
vn -0.0000 -1.0000 -0.0000
vn -0.2660 -0.0000 0.9640
vn 0.0896 -0.0000 0.9960
vn 0.7228 -0.0000 0.6911
vn 0.9195 -0.0000 0.3930
vn 0.4339 -0.0000 0.9010
vt -0.700889 -1.455411
vt -0.638310 -1.325464
vt -0.131873 -1.465231
vt -0.144802 -1.608882
vt -2.636224 0.000000
vt -3.213100 0.000000
vt -3.213100 0.317308
vt -2.636224 0.317308
vt 0.391381 -1.418138
vt 0.429752 -1.557171
vt -2.065558 0.000000
vt -2.642434 0.000000
vt -2.642434 0.317308
vt -2.065558 0.317308
vt 0.864723 -1.190188
vt 0.949499 -1.306874
vt 1.227786 -0.810454
vt 1.348157 -0.889911
vt -0.924227 0.000000
vt -1.501103 0.000000
vt -1.501103 0.317308
vt -0.924227 0.317308
vt 1.434269 -0.327363
vt 1.574883 -0.359457
vt -0.353561 0.000000
vt -0.930437 0.000000
vt -0.930437 0.317308
vt -0.353561 0.317308
vt -3.213100 0.432692
vt -2.636224 0.432692
vt -1.494892 0.317308
vt -2.071769 0.317308
vt -2.071769 0.432692
vt -1.494892 0.432692
vt -0.353561 0.317308
vt -0.930437 0.432692
vt -0.353561 0.432692
vt -2.071768 0.000000
vt -1.858330 0.043269
vt -1.783330 0.043269
vt -1.708330 0.043269
vt -1.494892 0.000000
vt -1.816715 0.000000
vt -2.030153 0.043269
vt -2.030153 0.158654
vt -2.049653 0.210577
vt -1.816715 0.317308
vt -1.494892 0.317308
vt -1.727830 0.210577
vt -1.783330 0.274038
vt -1.838830 0.210577
vt -1.767188 0.317308
vt -1.534250 0.210577
vt -1.553750 0.158654
vt -1.553750 0.043269
vt -1.767188 0.000000
s 0
usemtl Pietra_piatta_muschio
f 179/494/56 180/495/56 183/496/56 182/497/56
f 179/498/57 182/499/57 184/500/57 181/501/57
f 182/497/56 183/496/56 186/502/56 185/503/56
f 182/504/58 185/505/58 187/506/58 184/507/58
f 185/503/56 186/502/56 189/508/56 188/509/56
f 188/509/56 189/508/56 192/510/56 191/511/56
f 188/512/59 191/513/59 193/514/59 190/515/59
f 191/511/56 192/510/56 195/516/56 194/517/56
f 191/518/60 194/519/60 196/520/60 193/521/60
f 181/501/57 184/500/57 197/522/57 198/523/57
f 187/524/61 190/525/61 199/526/61 200/527/61
f 193/528/60 196/520/60 201/529/60 202/530/60
f 188/531/61 203/532/61 204/533/61 205/534/61 185/535/61
f 185/536/61 205/537/61 206/538/61 207/539/61 187/540/61
f 187/541/61 207/542/61 208/543/61 209/544/61 190/525/61
f 190/545/61 209/546/61 210/547/61 203/548/61 188/549/61
o Deflettori
v -15.798533 144.338669 30.745234
v 33.887985 144.338669 6.816704
v -19.857256 138.778931 25.655495
v 32.439079 138.778931 0.470105
v -24.887241 141.832672 19.347771
v 30.643452 141.832672 -7.395253
v -28.945967 136.272934 14.258034
v 29.194551 136.272934 -13.741855
v -33.975948 139.326660 7.950309
v 27.398920 139.326660 -21.607214
v -26.457773 118.274529 -22.245207
v -14.188153 118.274529 31.520775
v -20.592352 112.714790 -25.069305
v -7.678263 112.714790 31.520777
v -13.323325 115.768524 -28.569216
v 0.389458 115.768524 31.520775
v -7.457908 110.208794 -31.393309
v 6.899346 110.208794 31.520777
v -0.188879 113.262527 -34.893219
v 14.967069 113.262527 31.520777
v 14.188153 92.210388 31.520775
v 26.457773 92.210388 -22.245207
v 7.678262 86.650658 31.520777
v 20.592352 86.650658 -25.069305
v -0.389459 89.704391 31.520775
v 13.323324 89.704391 -28.569216
v -6.899347 84.144653 31.520777
v 7.457907 84.144653 -31.393309
v -14.967070 87.198387 31.520777
v 0.188879 87.198387 -34.893219
v 33.490314 66.146248 8.559302
v -27.572285 66.146248 -20.847832
v 29.431595 60.586514 13.649039
v -29.021189 60.586514 -14.501232
v 24.401611 63.640247 19.956766
v -30.816816 63.640247 -6.635876
v 20.342890 58.080509 25.046501
v -32.265720 58.080509 -0.289276
v 15.312902 61.134247 31.354227
v -34.061352 61.134247 7.576083
vn -0.2859 0.7522 -0.5937
vn 0.1570 0.9322 0.3261
vn 0.6424 0.7522 -0.1466
vn -0.3529 0.9322 0.0805
vn -0.6424 0.7522 -0.1466
vn 0.3529 0.9322 0.0805
vn -0.2859 0.7522 0.5937
vn 0.1570 0.9322 -0.3261
vt -0.208419 -0.405601
vt 0.447061 -0.089928
vt 0.427946 -0.006202
vt -0.261963 -0.338455
vt 0.404258 0.097560
vt -0.328320 -0.255242
vt 0.385144 0.181287
vt -0.381864 -0.188096
vt 0.361455 0.285049
vt -0.448221 -0.104883
vt -0.349039 0.293466
vt -0.187174 -0.415832
vt -0.101294 -0.415832
vt -0.271661 0.330722
vt 0.005138 -0.415832
vt -0.175765 0.376894
vt 0.091018 -0.415832
vt -0.098387 0.414150
vt 0.197450 -0.415832
vt -0.002492 0.460322
vt 0.187174 -0.415832
vt 0.349039 0.293466
vt 0.271661 0.330722
vt 0.101294 -0.415832
vt 0.175765 0.376894
vt -0.005138 -0.415832
vt 0.098387 0.414150
vt -0.091018 -0.415832
vt 0.002492 0.460322
vt -0.197450 -0.415832
vt 0.441815 -0.112917
vt -0.363742 0.275031
vt -0.382856 0.191305
vt 0.388271 -0.180062
vt -0.406545 0.087543
vt 0.321914 -0.263276
vt -0.425659 0.003816
vt 0.268370 -0.330421
vt -0.449348 -0.099946
vt 0.202013 -0.413635
s 0
usemtl Pietra_piatta
f 211/550/62 212/551/62 214/552/62 213/553/62
f 213/553/63 214/552/63 216/554/63 215/555/63
f 215/555/62 216/554/62 218/556/62 217/557/62
f 217/557/63 218/556/63 220/558/63 219/559/63
f 221/560/64 222/561/64 224/562/64 223/563/64
f 223/563/65 224/562/65 226/564/65 225/565/65
f 225/565/64 226/564/64 228/566/64 227/567/64
f 227/567/65 228/566/65 230/568/65 229/569/65
f 231/570/66 232/571/66 234/572/66 233/573/66
f 233/573/67 234/572/67 236/574/67 235/575/67
f 235/575/66 236/574/66 238/576/66 237/577/66
f 237/577/67 238/576/67 240/578/67 239/579/67
f 241/580/68 242/581/68 244/582/68 243/583/68
f 243/583/69 244/582/69 246/584/69 245/585/69
f 245/585/68 246/584/68 248/586/68 247/587/68
f 247/587/69 248/586/69 250/588/69 249/589/69
