# Blender 5.2.0 LTS
# www.blender.org
o Torre
v 0.000000 19.679298 -34.985424
v 0.000000 159.620987 -34.985424
v 27.352703 19.679298 -21.813057
v 27.352703 159.620987 -21.813057
v 34.108265 19.679298 7.784989
v 34.108265 159.620987 7.784989
v -44.969585 0.000000 93.380295
v 15.179607 159.620987 31.520775
v -15.179607 19.679298 31.520775
v -15.179607 159.620987 31.520775
v -34.108265 19.679298 7.784989
v -34.108265 159.620987 7.784989
v -27.352703 19.679298 -21.813057
v -27.352703 159.620987 -21.813057
v 0.000000 0.000000 -52.478134
v 47.183414 0.000000 -37.627522
v 54.573223 0.000000 12.455983
v 21.820686 0.000000 45.311115
v -25.046352 0.000000 52.009277
v -50.309689 0.000000 11.482860
v -42.738598 0.000000 -34.082901
v 24.617432 170.553940 -19.631750
v 0.000000 170.553940 -31.486877
v -24.617432 170.553940 -19.631750
v -30.697437 170.553940 7.006490
v -13.661646 170.553940 28.368696
v 13.661646 170.553940 28.368696
v 30.697437 170.553940 7.006490
v 24.617432 178.425644 -19.631750
v 0.000000 178.425644 -31.486877
v -24.617432 178.425644 -19.631750
v -30.697437 178.425644 7.006490
v -13.661646 178.425644 28.368696
v 13.661646 178.425644 28.368696
v 30.697437 178.425644 7.006490
v 31.455606 191.545197 -25.085014
v 0.000000 191.545197 -40.233234
v -31.455606 191.545197 -25.085014
v -39.224503 191.545197 8.952738
v -17.456549 191.545197 36.248890
v 17.456549 191.545197 36.248890
v 39.224503 191.545197 8.952738
v 31.455606 257.142853 -25.085014
v 0.000000 257.142853 -40.233234
v -31.455606 257.142853 -25.085014
v -39.224503 257.142853 8.952738
v -17.456549 257.142853 36.248890
v 17.456549 257.142853 36.248890
v 39.224503 257.142853 8.952738
v 18.804981 270.262390 -14.996475
v 0.000000 270.262390 -24.052475
v -18.804981 270.262390 -14.996475
v -23.449429 270.262390 5.352180
v -10.435980 270.262390 21.670532
v 10.435980 270.262390 21.670532
v 23.449429 270.262390 5.352180
v 21.540251 274.635559 -17.177780
v 0.000000 274.635559 -27.551018
v -21.540251 274.635559 -17.177780
v -26.860256 274.635559 6.130679
v -11.953940 274.635559 24.822609
v 11.953940 274.635559 24.822609
v 26.860256 274.635559 6.130679
v 21.540251 284.256561 -17.177780
v 0.000000 284.256561 -27.551018
v -21.540251 284.256561 -17.177780
v -26.860256 284.256561 6.130679
v -11.953940 284.256561 24.822609
v 11.953940 284.256561 24.822609
v 26.860256 284.256561 6.130679
v 5.903790 204.227402 36.248890
v 0.000000 204.227402 36.248890
v -5.903790 204.227402 36.248890
v -5.903790 224.344025 36.248890
v -4.368804 234.183670 36.248890
v 0.000000 246.209915 36.248890
v 4.368804 234.183670 36.248890
v 5.903790 224.344025 36.248890
v -36.653770 204.227402 -2.310369
v -35.340054 204.227402 -8.066138
v -34.026337 204.227402 -13.821907
v -34.026337 224.344025 -13.821907
v -34.367905 234.183670 -12.325407
v -35.340054 246.209915 -8.066138
v -36.312206 234.183670 -3.806868
v -36.653770 224.344025 -2.310369
v 10.408671 204.227402 -35.220684
v 15.727803 204.227402 -32.659122
v 21.046936 204.227402 -30.097565
v 21.046936 224.344025 -30.097565
v 19.663961 234.183670 -30.763571
v 15.727803 246.209915 -32.659122
v 11.791646 234.183670 -34.554676
v 10.408671 224.344025 -35.220684
v 32.021477 204.227402 17.985044
v 28.340525 204.227402 22.600813
v 24.659573 204.227402 27.216583
v 24.659573 224.344025 27.216583
v 25.616621 234.183670 26.016483
v 28.340525 246.209915 22.600813
v 31.064428 234.183670 19.185144
v 32.021477 224.344025 17.985044
v -24.659575 204.227402 27.216583
v -28.340527 204.227402 22.600813
v -32.021481 204.227402 17.985044
v -32.021481 224.344025 17.985044
v -31.064432 234.183670 19.185144
v -28.340527 246.209915 22.600813
v -25.616623 234.183670 26.016483
v -24.659575 224.344025 27.216583
v -21.046936 204.227402 -30.097565
v -15.727803 204.227402 -32.659122
v -10.408671 204.227402 -35.220684
v -10.408671 224.344025 -35.220684
v -11.791646 234.183670 -34.554676
v -15.727803 246.209915 -32.659122
v -19.663961 234.183670 -30.763571
v -21.046936 224.344025 -30.097565
v 34.026337 204.227402 -13.821907
v 35.340054 204.227402 -8.066137
v 36.653770 204.227402 -2.310368
v 36.653770 224.344025 -2.310368
v 36.312206 234.183670 -3.806868
v 35.340054 246.209915 -8.066137
v 34.367905 234.183670 -12.325407
v 34.026337 224.344025 -13.821907
v 0.000000 41.545189 -34.985424
v 27.352703 41.545189 -21.813057
v 34.108265 41.545189 7.784989
v 15.179607 41.545189 31.520775
v -15.179607 41.545189 31.520775
v -34.108265 41.545189 7.784989
v -27.352703 41.545189 -21.813057
v -44.969585 19.679298 93.380295
v 41.743919 0.000000 86.682129
v 41.743919 19.679298 86.682129
v 99.340317 0.000000 22.673780
v 99.340317 19.679298 22.673780
v -23.416950 59.037895 21.191471
v -25.870918 59.037895 18.114292
v -25.870918 94.023315 18.114292
v -23.416950 94.023315 21.191471
v 1.967930 100.583084 31.520775
v -1.967930 100.583084 31.520775
v -1.967930 131.195328 31.520775
v 1.967930 131.195328 31.520775
v 25.870918 59.037895 18.114292
v 23.416950 59.037895 21.191471
v 23.416950 94.023315 21.191471
v 25.870918 94.023315 18.114292
v 30.292576 100.583084 -8.932623
v 31.168388 100.583084 -5.095443
v 31.168388 131.195328 -5.095443
v 30.292576 131.195328 -8.932623
v 11.903307 59.037895 -29.253090
v 15.449396 59.037895 -27.545387
v 15.449396 94.023315 -27.545387
v 11.903307 94.023315 -29.253090
v -15.449396 100.583084 -27.545387
v -11.903307 100.583084 -29.253090
v -11.903307 131.195328 -29.253090
v -15.449396 131.195328 -27.545387
v -31.168392 59.037895 -5.095444
v -30.292578 59.037895 -8.932624
v -30.292578 94.023315 -8.932624
v -31.168392 94.023315 -5.095444
v -11.953940 299.125366 24.822609
v -26.860256 299.125366 6.130679
v 26.860256 297.376099 6.130679
v 11.953940 297.376099 24.822609
v 0.000000 300.000000 -27.551018
v 21.540251 300.000000 -17.177780
vn -0.4339 -0.0000 -0.9010
vn 0.4339 -0.0000 -0.9010
vn 0.9749 -0.0000 -0.2225
vn 0.7818 -0.0000 0.6235
vn -0.0000 -0.0000 1.0000
vn 0.2225 -0.0000 -0.9749
vn -0.9749 -0.0000 -0.2225
vn -0.7818 -0.0000 0.6235
vn -0.0000 -1.0000 -0.0000
vn -0.9010 -0.0000 -0.4339
vn -0.2965 0.6614 -0.6889
vn 0.6608 0.7442 -0.0975
vn -0.6072 0.6986 0.3785
vn 0.3387 0.6251 -0.7032
vn 0.7434 -0.0000 0.6689
vn -0.7759 0.6055 -0.1771
vn 0.4169 0.2770 -0.8657
vn 0.7512 0.2770 0.5991
vn -0.9368 0.2770 -0.2138
vn -0.0000 0.2770 0.9609
vn -0.4169 0.2770 -0.8657
vn 0.9368 0.2770 -0.2138
vn -0.7512 0.2770 0.5991
vn 0.6702 -0.5149 0.5345
vn -0.6702 -0.5149 0.5345
vn -0.3719 -0.5149 -0.7724
vn 0.8358 -0.5149 -0.1908
vn -0.0000 -0.5149 0.8572
vn -0.8358 -0.5149 -0.1908
vn 0.3719 -0.5149 -0.7724
vn -0.2902 0.7433 -0.6027
vn 0.6522 0.7433 -0.1489
vn -0.0000 0.7433 0.6689
vn -0.6522 0.7433 -0.1489
vn 0.2902 0.7433 -0.6027
vn 0.5230 0.7433 0.4171
vn -0.5230 0.7433 0.4171
vn 0.6342 -0.5847 0.5058
vn -0.6342 -0.5847 0.5058
vn -0.3520 -0.5847 -0.7309
vn 0.7909 -0.5847 -0.1805
vn -0.0000 -0.5847 0.8112
vn -0.7909 -0.5847 -0.1805
vn 0.3520 -0.5847 -0.7309
vn -0.3387 0.6251 -0.7032
vn 0.7029 0.6929 -0.1604
vn -0.6222 0.6055 0.4962
vn 0.2051 0.7303 -0.6516
vn -0.7430 0.6578 -0.1234
vn 0.0770 -0.0000 0.9970
s 0
f 133//1 159//1 160//1 127//1
f 127//2 155//2 156//2 128//2
f 128//3 151//3 152//3 129//3
f 129//4 147//4 148//4 130//4
f 130//5 143//5 144//5 131//5
f 17//6 5//6 138//6 137//6
f 132//7 163//7 164//7 133//7
f 67//8 68//8 167//8 168//8
f 15//9 16//9 17//9 18//9 19//9 20//9 21//9
f 19//10 7//10 134//10 9//10
f 13//11 15//11 21//11
f 3//12 17//12 16//12
f 9//13 20//13 19//13
f 3//14 15//14 1//14
f 135//15 137//15 138//15 136//15
f 13//16 20//16 11//16
f 4//17 2//17 23//17 22//17
f 8//18 6//18 28//18 27//18
f 14//19 12//19 25//19 24//19
f 10//20 8//20 27//20 26//20
f 2//21 14//21 24//21 23//21
f 6//22 4//22 22//22 28//22
f 12//23 10//23 26//23 25//23
f 28//3 22//3 29//3 35//3
f 26//5 27//5 34//5 33//5
f 24//7 25//7 32//7 31//7
f 22//2 23//2 30//2 29//2
f 27//4 28//4 35//4 34//4
f 25//8 26//8 33//8 32//8
f 23//1 24//1 31//1 30//1
f 34//24 35//24 42//24 41//24
f 32//25 33//25 40//25 39//25
f 30//26 31//26 38//26 37//26
f 35//27 29//27 36//27 42//27
f 33//28 34//28 41//28 40//28
f 31//29 32//29 39//29 38//29
f 29//30 30//30 37//30 36//30
f 39//7 79//7 80//7 81//7 38//7
f 37//2 87//2 88//2 89//2 36//2
f 42//4 95//4 96//4 97//4 41//4
f 40//8 103//8 104//8 105//8 39//8
f 38//1 111//1 112//1 113//1 37//1
f 36//3 119//3 120//3 121//3 42//3
f 44//31 45//31 52//31 51//31
f 49//32 43//32 50//32 56//32
f 47//33 48//33 55//33 54//33
f 45//34 46//34 53//34 52//34
f 43//35 44//35 51//35 50//35
f 48//36 49//36 56//36 55//36
f 46//37 47//37 54//37 53//37
f 55//38 56//38 63//38 62//38
f 53//39 54//39 61//39 60//39
f 51//40 52//40 59//40 58//40
f 56//41 50//41 57//41 63//41
f 54//42 55//42 62//42 61//42
f 52//43 53//43 60//43 59//43
f 50//44 51//44 58//44 57//44
f 63//3 57//3 64//3 70//3
f 61//5 62//5 69//5 68//5
f 59//7 60//7 67//7 66//7
f 57//2 58//2 65//2 64//2
f 62//4 63//4 70//4 69//4
f 60//8 61//8 68//8 67//8
f 58//1 59//1 66//1 65//1
f 13//45 1//45 15//45
f 3//46 5//46 17//46
f 9//47 11//47 20//47
f 3//48 16//48 15//48
f 18//9 17//9 137//9 135//9
f 13//49 21//49 20//49
f 41//5 71//5 72//5 73//5 40//5
f 40//5 73//5 74//5 75//5 47//5
f 47//5 75//5 76//5 77//5 48//5
f 48//5 77//5 78//5 71//5 41//5
f 38//7 81//7 82//7 83//7 45//7
f 45//7 83//7 84//7 85//7 46//7
f 46//7 85//7 86//7 79//7 39//7
f 36//2 89//2 90//2 91//2 43//2
f 43//2 91//2 92//2 93//2 44//2
f 44//2 93//2 94//2 87//2 37//2
f 41//4 97//4 98//4 99//4 48//4
f 48//4 99//4 100//4 101//4 49//4
f 49//4 101//4 102//4 95//4 42//4
f 39//8 105//8 106//8 107//8 46//8
f 46//8 107//8 108//8 109//8 47//8
f 47//8 109//8 110//8 103//8 40//8
f 37//1 113//1 114//1 115//1 44//1
f 44//1 115//1 116//1 117//1 45//1
f 45//1 117//1 118//1 111//1 38//1
f 42//3 121//3 122//3 123//3 49//3
f 49//3 123//3 124//3 125//3 43//3
f 43//3 125//3 126//3 119//3 36//3
f 11//7 132//7 133//7 13//7
f 9//8 131//8 132//8 11//8
f 7//50 135//50 136//50 134//50
f 19//9 18//9 135//9 7//9
f 3//3 128//3 129//3 5//3
f 1//2 127//2 128//2 3//2
f 13//1 133//1 127//1 1//1
f 131//8 139//8 140//8 132//8
f 132//8 140//8 141//8 12//8
f 12//8 141//8 142//8 10//8
f 10//8 142//8 139//8 131//8
f 131//5 144//5 145//5 10//5
f 10//5 145//5 146//5 8//5
f 8//5 146//5 143//5 130//5
f 130//4 148//4 149//4 8//4
f 8//4 149//4 150//4 6//4
f 6//4 150//4 147//4 129//4
f 129//3 152//3 153//3 6//3
f 6//3 153//3 154//3 4//3
f 4//3 154//3 151//3 128//3
f 128//2 156//2 157//2 4//2
f 4//2 157//2 158//2 2//2
f 2//2 158//2 155//2 127//2
f 127//1 160//1 161//1 2//1
f 2//1 161//1 162//1 14//1
f 14//1 162//1 159//1 133//1
f 133//7 164//7 165//7 14//7
f 14//7 165//7 166//7 12//7
f 12//7 166//7 163//7 132//7
f 69//4 70//4 169//4 170//4
f 64//2 65//2 171//2 172//2
o Rampa
v 1.244072 0.000000 47.939499
v 36.704945 0.000000 30.862442
v 3.967154 20.991253 -30.062874
v -25.977583 20.991253 -15.642249
v -25.977583 0.000000 -15.642249
v 3.967154 0.000000 -30.062874
vn 0.1261 0.9568 0.2619
vn -0.4339 -0.0000 -0.9010
vn -0.0000 -1.0000 -0.0000
vn -0.9193 -0.0000 0.3936
vn 0.8809 -0.0000 -0.4733
s 0
f 173//51 174//51 175//51 176//51
f 176//52 175//52 178//52 177//52
f 173//53 177//53 178//53 174//53
f 173//54 176//54 177//54
f 174//55 178//55 175//55
o Muro
v -53.128620 0.000000 110.322723
v -48.384995 0.000000 100.472473
v -53.128620 24.052479 110.322723
v -10.976241 0.000000 121.956032
v -9.996220 0.000000 111.067101
v -10.976241 24.052479 121.956032
v 32.575939 0.000000 118.036263
v 29.667374 0.000000 107.497314
v 32.575939 24.052479 118.036263
v 71.973701 0.000000 99.063301
v 65.547478 0.000000 90.218361
v 71.973701 24.052479 99.063301
v 102.192642 0.000000 67.456772
v 93.068306 0.000000 61.433846
v 102.192642 24.052479 67.456772
v 119.378922 0.000000 27.247461
v 108.720085 0.000000 24.814653
v 119.378922 24.052479 27.247461
v -10.976241 32.798832 121.956032
v -53.128620 32.798832 110.322723
v 71.973701 32.798832 99.063301
v 32.575939 32.798832 118.036263
v 119.378922 32.798832 27.247461
v 102.192642 32.798832 67.456772
v 57.396946 3.279883 106.083099
v 52.274818 3.279883 108.549782
v 47.152691 3.279883 111.016464
v 47.152691 12.026239 111.016464
v 48.484444 15.962099 110.375137
v 52.274818 20.772594 108.549782
v 56.065193 15.962099 106.724434
v 57.396946 12.026239 106.083099
vn -0.0000 -1.0000 -0.0000
vn -0.2660 -0.0000 0.9640
vn 0.0896 -0.0000 0.9960
vn 0.7228 -0.0000 0.6911
vn 0.9195 -0.0000 0.3930
vn 0.4339 -0.0000 0.9010
s 0
f 179//56 180//56 183//56 182//56
f 179//57 182//57 184//57 181//57
f 182//56 183//56 186//56 185//56
f 182//58 185//58 187//58 184//58
f 185//56 186//56 189//56 188//56
f 188//56 189//56 192//56 191//56
f 188//59 191//59 193//59 190//59
f 191//56 192//56 195//56 194//56
f 191//60 194//60 196//60 193//60
f 181//57 184//57 197//57 198//57
f 187//61 190//61 199//61 200//61
f 193//60 196//60 201//60 202//60
f 188//61 203//61 204//61 205//61 185//61
f 185//61 205//61 206//61 207//61 187//61
f 187//61 207//61 208//61 209//61 190//61
f 190//61 209//61 210//61 203//61 188//61
o Deflettori
v -15.798533 144.338669 30.745234
v 33.887985 144.338669 6.816704
v -19.857256 138.778931 25.655495
v 32.439079 138.778931 0.470105
v -24.887241 141.832672 19.347771
v 30.643452 141.832672 -7.395253
v -28.945967 136.272934 14.258034
v 29.194551 136.272934 -13.741855
v -33.975948 139.326660 7.950309
v 27.398920 139.326660 -21.607214
v -26.457773 118.274529 -22.245207
v -14.188153 118.274529 31.520775
v -20.592352 112.714790 -25.069305
v -7.678263 112.714790 31.520777
v -13.323325 115.768524 -28.569216
v 0.389458 115.768524 31.520775
v -7.457908 110.208794 -31.393309
v 6.899346 110.208794 31.520777
v -0.188879 113.262527 -34.893219
v 14.967069 113.262527 31.520777
v 14.188153 92.210388 31.520775
v 26.457773 92.210388 -22.245207
v 7.678262 86.650658 31.520777
v 20.592352 86.650658 -25.069305
v -0.389459 89.704391 31.520775
v 13.323324 89.704391 -28.569216
v -6.899347 84.144653 31.520777
v 7.457907 84.144653 -31.393309
v -14.967070 87.198387 31.520777
v 0.188879 87.198387 -34.893219
v 33.490314 66.146248 8.559302
v -27.572285 66.146248 -20.847832
v 29.431595 60.586514 13.649039
v -29.021189 60.586514 -14.501232
v 24.401611 63.640247 19.956766
v -30.816816 63.640247 -6.635876
v 20.342890 58.080509 25.046501
v -32.265720 58.080509 -0.289276
v 15.312902 61.134247 31.354227
v -34.061352 61.134247 7.576083
vn -0.2859 0.7522 -0.5937
vn 0.1570 0.9322 0.3261
vn 0.6424 0.7522 -0.1466
vn -0.3529 0.9322 0.0805
vn -0.6424 0.7522 -0.1466
vn 0.3529 0.9322 0.0805
vn -0.2859 0.7522 0.5937
vn 0.1570 0.9322 -0.3261
s 0
f 211//62 212//62 214//62 213//62
f 213//63 214//63 216//63 215//63
f 215//62 216//62 218//62 217//62
f 217//63 218//63 220//63 219//63
f 221//64 222//64 224//64 223//64
f 223//65 224//65 226//65 225//65
f 225//64 226//64 228//64 227//64
f 227//65 228//65 230//65 229//65
f 231//66 232//66 234//66 233//66
f 233//67 234//67 236//67 235//67
f 235//66 236//66 238//66 237//66
f 237//67 238//67 240//67 239//67
f 241//68 242//68 244//68 243//68
f 243//69 244//69 246//69 245//69
f 245//68 246//68 248//68 247//68
f 247//69 248//69 250//69 249//69
