# Blender 5.2.0 LTS
# www.blender.org
o Torre
v 0.000000 13.119533 -23.323614
v 0.000000 106.413994 -23.323614
v 14.992131 13.119533 -17.866926
v 14.992131 106.413994 -17.866926
v 22.969276 13.119533 -4.050104
v 22.969276 106.413994 -4.050104
v 20.198843 13.119533 11.661807
v 20.198843 106.413994 11.661807
v -56.304268 13.119533 32.507290
v 7.977147 106.413994 21.917028
v -56.304268 0.000000 32.507290
v -7.977147 106.413994 21.917028
v -20.198843 13.119533 11.661807
v -20.198843 106.413994 11.661807
v -22.969276 13.119533 -4.050104
v -22.969276 106.413994 -4.050104
v -14.992131 13.119533 -17.866926
v -14.992131 106.413994 -17.866926
v 0.000000 0.000000 -36.443146
v 22.488195 0.000000 -26.800386
v 39.622002 0.000000 -6.986429
v 32.318150 0.000000 18.658894
v 11.467148 0.000000 31.505728
v -13.162292 0.000000 36.163097
v -29.793293 0.000000 17.201166
v -33.305450 0.000000 -5.872651
v -25.111818 0.000000 -29.927099
v 13.492919 113.702621 -16.080233
v 0.000000 113.702621 -20.991253
v -13.492919 113.702621 -16.080233
v -20.672348 113.702621 -3.645093
v -18.178957 113.702621 10.495626
v -7.179432 113.702621 19.725327
v 7.179432 113.702621 19.725327
v 18.178957 113.702621 10.495626
v 20.672348 113.702621 -3.645093
v 13.492919 118.950432 -16.080233
v 0.000000 118.950432 -20.991253
v -13.492919 118.950432 -16.080233
v -20.672348 118.950432 -3.645093
v -18.178957 118.950432 10.495626
v -7.179432 118.950432 19.725327
v 7.179432 118.950432 19.725327
v 18.178957 118.950432 10.495626
v 20.672348 118.950432 -3.645093
v 17.240952 127.696793 -20.546965
v 0.000000 127.696793 -26.822155
v -17.240952 127.696793 -20.546965
v -26.414669 127.696793 -4.657619
v -23.228668 127.696793 13.411077
v -9.173718 127.696793 25.204582
v 9.173718 127.696793 25.204582
v 23.228668 127.696793 13.411077
v 26.414669 127.696793 -4.657619
v 17.240952 171.428574 -20.546965
v 0.000000 171.428574 -26.822155
v -17.240952 171.428574 -20.546965
v -26.414669 171.428574 -4.657619
v -23.228668 171.428574 13.411077
v -9.173718 171.428574 25.204582
v 9.173718 171.428574 25.204582
v 23.228668 171.428574 13.411077
v 26.414669 171.428574 -4.657619
v 10.307091 180.174927 -12.283511
v 0.000000 180.174927 -16.034983
v -10.307091 180.174927 -12.283511
v -15.791378 180.174927 -2.784446
v -13.886703 180.174927 8.017491
v -5.484288 180.174927 15.067957
v 5.484288 180.174927 15.067957
v 13.886703 180.174927 8.017491
v 15.791378 180.174927 -2.784446
v 11.806304 183.090378 -14.070204
v 0.000000 183.090378 -18.367344
v -11.806304 183.090378 -14.070204
v -18.088305 183.090378 -3.189457
v -15.906587 183.090378 9.183672
v -6.282002 183.090378 17.259659
v 6.282002 183.090378 17.259659
v 15.906587 183.090378 9.183672
v 18.088305 183.090378 -3.189457
v 11.806304 189.504364 -14.070204
v 0.000000 189.504364 -18.367344
v -11.806304 189.504364 -14.070204
v -18.088305 189.504364 -3.189457
v -15.906587 189.504364 9.183672
v -6.282002 189.504364 17.259659
v 6.282002 189.504364 17.259659
v 15.906587 189.504364 9.183672
v 18.088305 189.504364 -3.189457
v 4.921977 136.151596 -25.030703
v 8.620476 136.151596 -23.684561
v 12.318974 136.151596 -22.338417
v 12.318974 149.562683 -22.338417
v 11.357365 156.122452 -22.688414
v 8.620476 164.139938 -23.684561
v 5.883587 156.122452 -24.680706
v 4.921977 149.562683 -25.030703
v 25.505123 136.151596 0.500663
v 24.821667 136.151596 4.376729
v 24.138212 136.151596 8.252794
v 24.138212 149.562683 8.252794
v 24.315910 156.122452 7.245018
v 24.821667 164.139938 4.376729
v 25.327423 156.122452 1.508440
v 25.505123 149.562683 0.500663
v -13.186151 136.151596 21.837755
v -16.201193 136.151596 19.307831
v -19.216238 136.151596 16.777908
v -19.216238 149.562683 16.777908
v -18.432325 156.122452 17.435690
v -16.201193 164.139938 19.307831
v -13.970061 156.122452 21.179974
v -13.186151 149.562683 21.837755
v -12.318974 136.151596 -22.338417
v -8.620476 136.151596 -23.684561
v -4.921977 136.151596 -25.030703
v -4.921977 149.562683 -25.030703
v -5.883587 156.122452 -24.680706
v -8.620476 164.139938 -23.684561
v -11.357365 156.122452 -22.688414
v -12.318974 149.562683 -22.338417
v 19.859880 136.151596 -16.010847
v 21.827810 136.151596 -12.602292
v 23.795740 136.151596 -9.193737
v 23.795740 149.562683 -9.193737
v 23.284079 156.122452 -10.079962
v 21.827810 164.139938 -12.602292
v 20.371542 156.122452 -15.124622
v 19.859880 149.562683 -16.010847
v 3.935860 136.151596 25.204582
v 0.000000 136.151596 25.204582
v -3.935860 136.151596 25.204582
v -3.935860 149.562683 25.204582
v -2.912536 156.122452 25.204582
v 0.000000 164.139938 25.204582
v 2.912536 156.122452 25.204582
v 3.935860 149.562683 25.204582
v -23.795740 136.151596 -9.193737
v -21.827810 136.151596 -12.602292
v -19.859880 136.151596 -16.010847
v -19.859880 149.562683 -16.010847
v -20.371542 156.122452 -15.124622
v -21.827810 164.139938 -12.602292
v -23.284079 156.122452 -10.079962
v -23.795740 149.562683 -9.193737
v 19.216238 136.151596 16.777908
v 16.201193 136.151596 19.307831
v 13.186151 136.151596 21.837755
v 13.186151 149.562683 21.837755
v 13.970061 156.122452 21.179974
v 16.201193 164.139938 19.307831
v 18.432325 156.122452 17.435690
v 19.216238 149.562683 16.777908
v -24.138212 136.151596 8.252794
v -24.821667 136.151596 4.376729
v -25.505123 136.151596 0.500663
v -25.505123 149.562683 0.500663
v -25.327423 156.122452 1.508440
v -24.821667 164.139938 4.376729
v -24.315910 156.122452 7.245018
v -24.138212 149.562683 8.252794
v 0.000000 27.696793 -23.323614
v 14.992131 27.696795 -17.866926
v 22.969276 27.696795 -4.050104
v 20.198843 27.696795 11.661807
v 7.977147 27.696795 21.917028
v -7.977147 27.696795 21.917028
v -20.198843 27.696795 11.661807
v -22.969276 27.696795 -4.050104
v -14.992131 27.696795 -17.866926
v -23.632296 0.000000 64.929199
v -23.632296 13.119533 64.929199
v 21.937153 0.000000 60.271828
v 21.937153 13.119533 60.271828
v 58.829128 0.000000 33.965015
v 58.829128 13.119533 33.965015
v -21.356239 39.358597 5.097874
v -21.811876 39.358597 2.513830
v -21.811876 62.682209 2.513830
v -21.356239 62.682209 5.097874
v -13.082979 67.055389 17.632725
v -15.093010 67.055389 15.946112
v -15.093010 87.463554 15.946112
v -13.082979 87.463554 17.632725
v 1.311953 39.358597 21.917028
v -1.311953 39.358597 21.917028
v -1.311953 62.682209 21.917028
v 1.311953 62.682209 21.917028
v 15.093008 67.055389 15.946112
v 13.082979 67.055389 17.632725
v 13.082979 87.463554 17.632725
v 15.093008 87.463554 15.946112
v 21.811878 39.358597 2.513830
v 21.356241 39.358597 5.097874
v 21.356241 62.682209 5.097874
v 21.811878 62.682209 2.513830
v 18.324728 67.055389 -12.094700
v 19.636681 67.055389 -9.822330
v 19.636681 87.463554 -9.822330
v 18.324728 87.463554 -12.094700
v 6.263233 39.358597 -21.043985
v 8.728898 39.358597 -20.146555
v 8.728898 62.682209 -20.146555
v 6.263233 62.682209 -21.043985
v -8.728898 67.055389 -20.146555
v -6.263233 67.055389 -21.043985
v -6.263233 87.463554 -21.043985
v -8.728898 87.463554 -20.146555
v -19.636681 39.358597 -9.822330
v -18.324728 39.358597 -12.094701
v -18.324728 62.682209 -12.094701
v -19.636681 62.682209 -9.822330
v -6.282002 199.416916 17.259659
v -15.906587 199.416916 9.183672
v 15.906587 198.250732 9.183672
v 6.282002 198.250732 17.259659
v 18.088305 198.250732 -3.189457
v 0.000000 200.000000 -18.367344
v 11.806304 200.000000 -14.070204
v -18.088305 195.335266 -3.189457
v -11.806304 195.335266 -14.070204
vn -0.3420 -0.0000 -0.9397
vn 0.3420 -0.0000 -0.9397
vn 0.8660 -0.0000 -0.5000
vn 0.9848 -0.0000 0.1736
vn 0.6428 -0.0000 0.7660
vn -0.0000 -0.0000 1.0000
vn -0.6428 -0.0000 0.7660
vn -0.8660 -0.0000 -0.5000
vn -0.0000 -1.0000 -0.0000
vn 0.5000 -0.0000 -0.8660
vn -0.5000 -0.0000 -0.8660
vn 0.2902 0.6767 -0.6767
vn 0.6281 0.7573 0.1789
vn 0.6647 0.6411 -0.3837
vn -0.1703 0.7349 -0.6565
vn -0.6922 0.6009 -0.3997
vn -0.7771 0.6182 0.1183
vn 0.5806 -0.0000 0.8142
vn -0.8293 0.2880 -0.4788
vn -0.9431 0.2880 0.1663
vn -0.6156 0.2880 0.7336
vn -0.0000 0.2880 0.9576
vn 0.6156 0.2880 0.7336
vn 0.3275 0.2880 -0.8999
vn 0.9431 0.2880 0.1663
vn 0.8293 0.2880 -0.4788
vn -0.3275 0.2880 -0.8999
vn -0.9848 -0.0000 0.1736
vn -0.2898 -0.5309 -0.7963
vn 0.7339 -0.5309 -0.4237
vn -0.0000 -0.5309 0.8474
vn -0.7339 -0.5309 -0.4237
vn 0.5447 -0.5309 0.6492
vn -0.8346 -0.5309 0.1472
vn 0.2898 -0.5309 -0.7963
vn 0.8346 -0.5309 0.1472
vn -0.5447 -0.5309 0.6492
vn 0.4199 0.7571 0.5004
vn -0.6434 0.7571 0.1134
vn 0.2234 0.7571 -0.6139
vn 0.6434 0.7571 0.1134
vn -0.4199 0.7571 0.5004
vn -0.2234 0.7571 -0.6139
vn 0.5658 0.7571 -0.3266
vn -0.0000 0.7571 0.6533
vn -0.5658 0.7571 -0.3266
vn 0.6922 -0.6009 -0.3997
vn -0.0000 -0.6009 0.7993
vn -0.6922 -0.6009 -0.3997
vn 0.5138 -0.6009 0.6123
vn -0.7872 -0.6009 0.1388
vn 0.2734 -0.6009 -0.7511
vn 0.7872 -0.6009 0.1388
vn -0.5138 -0.6009 0.6123
vn -0.2734 -0.6009 -0.7511
vn 0.2625 0.6411 -0.7212
vn 0.6956 0.7079 0.1226
vn 0.5072 0.7419 -0.4386
vn -0.2492 0.6848 -0.6848
vn -0.6605 0.7163 -0.2250
vn -0.7872 0.6009 0.1388
vn 0.1017 -0.0000 0.9948
vn -0.7044 -0.0000 0.7098
s 0
f 171//1 206//1 207//1 163//1
f 163//2 202//2 203//2 164//2
f 164//3 198//3 199//3 165//3
f 165//4 194//4 195//4 166//4
f 166//5 190//5 191//5 167//5
f 167//6 186//6 187//6 168//6
f 168//7 182//7 183//7 169//7
f 170//8 210//8 211//8 171//8
f 86//7 87//7 214//7 215//7
f 19//9 20//9 21//9 22//9 23//9 24//9 25//9 26//9 27//9
f 22//10 7//10 177//10 176//10
f 25//11 11//11 9//11 13//11
f 1//12 20//12 19//12
f 5//13 22//13 21//13
f 5//14 20//14 3//14
f 17//15 19//15 27//15
f 17//16 26//16 15//16
f 13//17 26//17 25//17
f 174//18 176//18 177//18 175//18
f 18//19 16//19 31//19 30//19
f 16//20 14//20 32//20 31//20
f 14//21 12//21 33//21 32//21
f 12//22 10//22 34//22 33//22
f 10//23 8//23 35//23 34//23
f 4//24 2//24 29//24 28//24
f 8//25 6//25 36//25 35//25
f 6//26 4//26 28//26 36//26
f 2//27 18//27 30//27 29//27
f 30//8 31//8 40//8 39//8
f 34//5 35//5 44//5 43//5
f 31//28 32//28 41//28 40//28
f 28//2 29//2 38//2 37//2
f 35//4 36//4 45//4 44//4
f 32//7 33//7 42//7 41//7
f 29//1 30//1 39//1 38//1
f 36//3 28//3 37//3 45//3
f 33//6 34//6 43//6 42//6
f 38//29 39//29 48//29 47//29
f 45//30 37//30 46//30 54//30
f 42//31 43//31 52//31 51//31
f 39//32 40//32 49//32 48//32
f 43//33 44//33 53//33 52//33
f 40//34 41//34 50//34 49//34
f 37//35 38//35 47//35 46//35
f 44//36 45//36 54//36 53//36
f 41//37 42//37 51//37 50//37
f 54//4 99//4 100//4 101//4 53//4
f 51//7 107//7 108//7 109//7 50//7
f 48//1 115//1 116//1 117//1 47//1
f 46//3 123//3 124//3 125//3 54//3
f 52//6 131//6 132//6 133//6 51//6
f 49//8 139//8 140//8 141//8 48//8
f 53//5 147//5 148//5 149//5 52//5
f 50//28 155//28 156//28 157//28 49//28
f 61//38 62//38 71//38 70//38
f 58//39 59//39 68//39 67//39
f 55//40 56//40 65//40 64//40
f 62//41 63//41 72//41 71//41
f 59//42 60//42 69//42 68//42
f 56//43 57//43 66//43 65//43
f 63//44 55//44 64//44 72//44
f 60//45 61//45 70//45 69//45
f 57//46 58//46 67//46 66//46
f 72//47 64//47 73//47 81//47
f 69//48 70//48 79//48 78//48
f 66//49 67//49 76//49 75//49
f 70//50 71//50 80//50 79//50
f 67//51 68//51 77//51 76//51
f 64//52 65//52 74//52 73//52
f 71//53 72//53 81//53 80//53
f 68//54 69//54 78//54 77//54
f 65//55 66//55 75//55 74//55
f 80//4 81//4 90//4 89//4
f 77//7 78//7 87//7 86//7
f 74//1 75//1 84//1 83//1
f 81//3 73//3 82//3 90//3
f 78//6 79//6 88//6 87//6
f 75//8 76//8 85//8 84//8
f 79//5 80//5 89//5 88//5
f 76//28 77//28 86//28 85//28
f 73//2 74//2 83//2 82//2
f 23//9 22//9 176//9 174//9
f 1//56 3//56 20//56
f 5//57 7//57 22//57
f 5//58 21//58 20//58
f 17//59 1//59 19//59
f 17//60 27//60 26//60
f 13//61 15//61 26//61
f 172//62 174//62 175//62 173//62
f 47//2 91//2 92//2 93//2 46//2
f 46//2 93//2 94//2 95//2 55//2
f 55//2 95//2 96//2 97//2 56//2
f 56//2 97//2 98//2 91//2 47//2
f 53//4 101//4 102//4 103//4 62//4
f 62//4 103//4 104//4 105//4 63//4
f 63//4 105//4 106//4 99//4 54//4
f 50//7 109//7 110//7 111//7 59//7
f 59//7 111//7 112//7 113//7 60//7
f 60//7 113//7 114//7 107//7 51//7
f 47//1 117//1 118//1 119//1 56//1
f 56//1 119//1 120//1 121//1 57//1
f 57//1 121//1 122//1 115//1 48//1
f 54//3 125//3 126//3 127//3 63//3
f 63//3 127//3 128//3 129//3 55//3
f 55//3 129//3 130//3 123//3 46//3
f 51//6 133//6 134//6 135//6 60//6
f 60//6 135//6 136//6 137//6 61//6
f 61//6 137//6 138//6 131//6 52//6
f 48//8 141//8 142//8 143//8 57//8
f 57//8 143//8 144//8 145//8 58//8
f 58//8 145//8 146//8 139//8 49//8
f 52//5 149//5 150//5 151//5 61//5
f 61//5 151//5 152//5 153//5 62//5
f 62//5 153//5 154//5 147//5 53//5
f 49//28 157//28 158//28 159//28 58//28
f 58//28 159//28 160//28 161//28 59//28
f 59//28 161//28 162//28 155//28 50//28
f 15//8 170//8 171//8 17//8
f 13//28 169//28 170//28 15//28
f 24//9 23//9 174//9 172//9
f 11//63 172//63 173//63 9//63
f 25//9 24//9 172//9 11//9
f 5//4 165//4 166//4 7//4
f 3//3 164//3 165//3 5//3
f 1//2 163//2 164//2 3//2
f 17//1 171//1 163//1 1//1
f 169//28 178//28 179//28 170//28
f 170//28 179//28 180//28 16//28
f 16//28 180//28 181//28 14//28
f 14//28 181//28 178//28 169//28
f 169//7 183//7 184//7 14//7
f 14//7 184//7 185//7 12//7
f 12//7 185//7 182//7 168//7
f 168//6 187//6 188//6 12//6
f 12//6 188//6 189//6 10//6
f 10//6 189//6 186//6 167//6
f 167//5 191//5 192//5 10//5
f 10//5 192//5 193//5 8//5
f 8//5 193//5 190//5 166//5
f 166//4 195//4 196//4 8//4
f 8//4 196//4 197//4 6//4
f 6//4 197//4 194//4 165//4
f 165//3 199//3 200//3 6//3
f 6//3 200//3 201//3 4//3
f 4//3 201//3 198//3 164//3
f 164//2 203//2 204//2 4//2
f 4//2 204//2 205//2 2//2
f 2//2 205//2 202//2 163//2
f 163//1 207//1 208//1 2//1
f 2//1 208//1 209//1 18//1
f 18//1 209//1 206//1 171//1
f 171//8 211//8 212//8 18//8
f 18//8 212//8 213//8 16//8
f 16//8 213//8 210//8 170//8
f 88//5 89//5 216//5 217//5
f 89//4 90//4 218//4 216//4
f 82//2 83//2 219//2 220//2
f 84//8 85//8 221//8 222//8
